M48
; DRILL file {KiCad (6.0.9)} date Thu Dec 15 10:14:24 2022
; FORMAT={-:-/ absolute / inch / decimal}
; #@! TF.CreationDate,2022-12-15T10:14:24-07:00
; #@! TF.GenerationSoftware,Kicad,Pcbnew,(6.0.9)
; #@! TF.FileFunction,Plated,1,2,PTH
FMAT,2
INCH
; #@! TA.AperFunction,Plated,PTH,ViaDrill
T1C0.0157
; #@! TA.AperFunction,Plated,PTH,ViaDrill
T2C0.0236
; #@! TA.AperFunction,Plated,PTH,ComponentDrill
T3C0.0315
; #@! TA.AperFunction,Plated,PTH,ComponentDrill
T4C0.0354
; #@! TA.AperFunction,Plated,PTH,ComponentDrill
T5C0.0362
; #@! TA.AperFunction,Plated,PTH,ComponentDrill
T6C0.0394
; #@! TA.AperFunction,Plated,PTH,ComponentDrill
T7C0.0512
; #@! TA.AperFunction,Plated,PTH,ComponentDrill
T8C0.0787
; #@! TA.AperFunction,Plated,PTH,ComponentDrill
T9C0.0906
; #@! TA.AperFunction,Plated,PTH,ComponentDrill
T10C0.1260
%
G90
G05
T1
X-0.035Y0.835
X0.305Y0.725
X0.365Y0.725
X0.375Y1.4
X0.405Y1.24
X0.435Y1.15
X0.455Y0.715
X0.495Y1.33
X0.51Y1.68
X0.58Y1.68
X0.6496Y0.31
X0.685Y1.505
X0.685Y1.295
X0.7Y0.94
X0.725Y1.555
X0.7575Y0.94
X0.8575Y0.685
X0.91Y0.31
X0.925Y0.795
X0.9959Y0.9976
X1.39Y0.43
X1.43Y1.245
X1.43Y1.045
X1.485Y1.29
X1.535Y1.7196
X1.76Y0.815
X1.785Y1.3325
X1.83Y1.24
X2.11Y1.02
X2.15Y1.09
X2.1777Y0.889
X2.2328Y1.1547
X2.2328Y0.8634
X2.29Y1.85
X2.315Y1.06
X2.3656Y1.7979
X2.4017Y1.395
X2.43Y1.84
X2.5198Y1.395
X2.52Y1.775
X2.5225Y1.8425
X2.5592Y1.28
X2.5635Y1.815
X2.57Y1.005
X2.5823Y1.4176
X2.6069Y1.5091
X2.61Y1.9
X2.64Y1.46
X2.84Y1.4
X2.87Y1.37
X2.875Y1.09
X2.9Y1.29
X3.0572Y1.078
X3.0895Y1.0488
X3.1211Y1.0208
X3.1513Y0.985
X3.17Y1.06
X3.21Y1.06
T2
X-0.035Y0.77
X-0.03Y1.4
X0.115Y0.895
X0.24Y1.2
X0.24Y1.1
X0.335Y1.555
X0.335Y1.45
X0.335Y1.365
X0.36Y1.25
X0.37Y0.925
X0.38Y1.155
X0.4975Y1.465
X0.4975Y1.375
X0.4975Y1.285
X0.4975Y1.195
X0.53Y1.075
X0.53Y0.925
X0.575Y0.43
X0.6625Y1.1925
X0.7Y1.375
X0.82Y1.155
X0.8209Y1.475
X0.8209Y1.315
X0.83Y0.925
X0.86Y0.43
X0.978Y0.115
X0.978Y-0.04
X0.995Y0.79
X1.075Y1.025
X1.1Y1.345
X1.1Y1.1928
X1.27Y0.79
X1.27Y0.55
X1.27Y0.43
X1.285Y1.145
X1.285Y1.045
X1.35Y1.35
X1.3725Y0.8825
X1.405Y1.86
X1.48Y0.43
X1.5025Y1.1775
X1.5025Y1.1075
X1.61Y0.205
X1.625Y1.945
X1.625Y1.51
X1.625Y1.35
X1.675Y1.25
X1.705Y0.205
X1.73Y0.94
X1.735Y0.395
X1.76Y1.455
X1.785Y1.095
X1.82Y1.945
X1.835Y0.8825
X1.87Y1.145
X1.94Y1.665
X2.01Y0.94
X2.0596Y1.845
X2.06Y1.19
X2.1Y1.3404
X2.11Y0.8825
X2.195Y1.475
X2.2Y1.845
X2.284Y0.887
X2.305Y1.58
X2.305Y1.16
X2.365Y1.3011
X2.3925Y1.68
X2.4017Y0.94
X2.455Y1.505
X2.455Y1.395
X2.455Y1.3
X2.455Y1.22
X2.51Y1.005
X2.5557Y1.505
X2.5931Y1.3496
X2.638Y1.22
X2.72Y1.815
X2.72Y1.58
X2.72Y1.16
X2.7661Y0.94
X2.935Y1.815
X2.935Y1.58
X2.95Y1.37
X2.9975Y1.4175
X3.045Y1.465
X3.05Y1.27
X3.0975Y1.3175
X3.16Y1.16
X3.2Y1.42
X3.2075Y1.2075
X3.315Y1.3125
X3.4225Y1.5175
X3.495Y1.59
X3.595Y1.7126
T3
X0.7216Y1.76
X0.82Y1.76
X0.85Y-0.04
X1.1059Y-0.04
X1.2316Y1.76
X1.33Y1.76
X2.01Y1.76
X2.01Y1.5679
X3.2816Y0.875
X3.38Y0.875
T4
X3.595Y2.1326
X3.595Y2.0326
X3.595Y1.93
X3.595Y1.83
T5
X3.5725Y1.2341
X3.5725Y1.1357
X3.5725Y1.057
X3.5725Y0.9585
T6
X-0.24Y1.6
X-0.24Y1.5
X-0.24Y1.4
X-0.24Y1.3
X-0.24Y1.2
X-0.24Y1.1
X-0.24Y1.0
X-0.24Y0.9
X-0.24Y0.8
X-0.24Y0.7
X-0.24Y0.6
X-0.24Y0.5
X-0.24Y0.4
X-0.24Y0.3
X-0.24Y0.2
X-0.24Y0.1
X-0.24Y0.0
X-0.17Y2.16
X-0.17Y2.06
X-0.17Y1.96
X-0.17Y1.86
X-0.14Y1.6
X-0.14Y1.5
X-0.14Y1.4
X-0.14Y1.3
X-0.14Y1.2
X-0.14Y1.1
X-0.14Y1.0
X-0.14Y0.9
X-0.14Y0.8
X-0.14Y0.7
X-0.14Y0.6
X-0.14Y0.5
X-0.14Y0.4
X-0.14Y0.3
X-0.14Y0.2
X-0.14Y0.1
X-0.14Y0.0
X-0.035Y1.25
X-0.035Y1.15
X-0.035Y1.05
X-0.035Y0.95
X0.065Y1.465
X0.065Y1.25
X0.065Y1.15
X0.065Y1.05
X0.065Y0.95
X0.0654Y2.11
X0.0654Y2.01
X0.0654Y1.91
X0.0654Y1.81
X0.0654Y1.71
X0.162Y0.2187
X0.162Y0.1187
X0.165Y1.465
X0.165Y1.25
X0.165Y1.15
X0.165Y1.05
X0.165Y0.95
X0.1654Y2.11
X0.1654Y2.01
X0.1654Y1.91
X0.1654Y1.81
X0.1654Y1.71
X0.9268Y0.0338
X1.0268Y0.0338
X1.655Y0.645
X1.655Y0.545
X1.655Y0.445
X1.655Y0.345
X2.31Y2.075
X2.41Y2.075
X2.51Y2.075
X2.5285Y0.828
X2.61Y2.075
X2.6285Y0.828
X2.71Y2.075
X2.7315Y0.828
X2.8315Y0.828
X2.9315Y0.828
X3.0315Y0.828
X3.1315Y0.828
X3.825Y1.2585
X3.825Y1.1585
X3.825Y1.0585
X3.825Y0.9585
X3.8734Y2.1674
X3.8734Y1.9882
X3.8734Y1.8918
X3.8734Y1.7126
T7
X3.775Y2.2156
X3.775Y1.94
X3.775Y1.6644
T8
X3.775Y1.94
T9
X3.6792Y1.355
X3.6792Y0.8377
T10
X0.575Y2.0625
X0.575Y0.105
X1.405Y2.0625
X1.405Y0.105
X3.365Y2.0625
T0
M30
