G04 #@! TF.GenerationSoftware,KiCad,Pcbnew,(6.0.9)*
G04 #@! TF.CreationDate,2022-12-15T10:14:16-07:00*
G04 #@! TF.ProjectId,OpenFlops,4f70656e-466c-46f7-9073-2e6b69636164,1*
G04 #@! TF.SameCoordinates,PX6312cb0PY6bcb370*
G04 #@! TF.FileFunction,Legend,Bot*
G04 #@! TF.FilePolarity,Positive*
%FSLAX46Y46*%
G04 Gerber Fmt 4.6, Leading zero omitted, Abs format (unit mm)*
G04 Created by KiCad (PCBNEW (6.0.9)) date 2022-12-15 10:14:16*
%MOMM*%
%LPD*%
G01*
G04 APERTURE LIST*
%ADD10C,0.150000*%
G04 APERTURE END LIST*
D10*
X30176952Y9326620D02*
X30653142Y9326620D01*
X30653142Y10326620D01*
X29843619Y9326620D02*
X29843619Y9993286D01*
X29843619Y10326620D02*
X29891238Y10279000D01*
X29843619Y10231381D01*
X29796000Y10279000D01*
X29843619Y10326620D01*
X29843619Y10231381D01*
X28938857Y9374239D02*
X29034095Y9326620D01*
X29224571Y9326620D01*
X29319809Y9374239D01*
X29367428Y9421858D01*
X29415047Y9517096D01*
X29415047Y9802810D01*
X29367428Y9898048D01*
X29319809Y9945667D01*
X29224571Y9993286D01*
X29034095Y9993286D01*
X28938857Y9945667D01*
X28129333Y9374239D02*
X28224571Y9326620D01*
X28415047Y9326620D01*
X28510285Y9374239D01*
X28557904Y9469477D01*
X28557904Y9850429D01*
X28510285Y9945667D01*
X28415047Y9993286D01*
X28224571Y9993286D01*
X28129333Y9945667D01*
X28081714Y9850429D01*
X28081714Y9755191D01*
X28557904Y9659953D01*
X27653142Y9993286D02*
X27653142Y9326620D01*
X27653142Y9898048D02*
X27605523Y9945667D01*
X27510285Y9993286D01*
X27367428Y9993286D01*
X27272190Y9945667D01*
X27224571Y9850429D01*
X27224571Y9326620D01*
X26796000Y9374239D02*
X26700761Y9326620D01*
X26510285Y9326620D01*
X26415047Y9374239D01*
X26367428Y9469477D01*
X26367428Y9517096D01*
X26415047Y9612334D01*
X26510285Y9659953D01*
X26653142Y9659953D01*
X26748380Y9707572D01*
X26796000Y9802810D01*
X26796000Y9850429D01*
X26748380Y9945667D01*
X26653142Y9993286D01*
X26510285Y9993286D01*
X26415047Y9945667D01*
X25557904Y9374239D02*
X25653142Y9326620D01*
X25843619Y9326620D01*
X25938857Y9374239D01*
X25986476Y9469477D01*
X25986476Y9850429D01*
X25938857Y9945667D01*
X25843619Y9993286D01*
X25653142Y9993286D01*
X25557904Y9945667D01*
X25510285Y9850429D01*
X25510285Y9755191D01*
X25986476Y9659953D01*
X24653142Y9326620D02*
X24653142Y10326620D01*
X24653142Y9374239D02*
X24748380Y9326620D01*
X24938857Y9326620D01*
X25034095Y9374239D01*
X25081714Y9421858D01*
X25129333Y9517096D01*
X25129333Y9802810D01*
X25081714Y9898048D01*
X25034095Y9945667D01*
X24938857Y9993286D01*
X24748380Y9993286D01*
X24653142Y9945667D01*
X22986476Y9993286D02*
X22986476Y9326620D01*
X23415047Y9993286D02*
X23415047Y9469477D01*
X23367428Y9374239D01*
X23272190Y9326620D01*
X23129333Y9326620D01*
X23034095Y9374239D01*
X22986476Y9421858D01*
X22510285Y9993286D02*
X22510285Y9326620D01*
X22510285Y9898048D02*
X22462666Y9945667D01*
X22367428Y9993286D01*
X22224571Y9993286D01*
X22129333Y9945667D01*
X22081714Y9850429D01*
X22081714Y9326620D01*
X21176952Y9326620D02*
X21176952Y10326620D01*
X21176952Y9374239D02*
X21272190Y9326620D01*
X21462666Y9326620D01*
X21557904Y9374239D01*
X21605523Y9421858D01*
X21653142Y9517096D01*
X21653142Y9802810D01*
X21605523Y9898048D01*
X21557904Y9945667D01*
X21462666Y9993286D01*
X21272190Y9993286D01*
X21176952Y9945667D01*
X20319809Y9374239D02*
X20415047Y9326620D01*
X20605523Y9326620D01*
X20700761Y9374239D01*
X20748380Y9469477D01*
X20748380Y9850429D01*
X20700761Y9945667D01*
X20605523Y9993286D01*
X20415047Y9993286D01*
X20319809Y9945667D01*
X20272190Y9850429D01*
X20272190Y9755191D01*
X20748380Y9659953D01*
X19843619Y9326620D02*
X19843619Y9993286D01*
X19843619Y9802810D02*
X19796000Y9898048D01*
X19748380Y9945667D01*
X19653142Y9993286D01*
X19557904Y9993286D01*
X17891238Y9421858D02*
X17938857Y9374239D01*
X18081714Y9326620D01*
X18176952Y9326620D01*
X18319809Y9374239D01*
X18415047Y9469477D01*
X18462666Y9564715D01*
X18510285Y9755191D01*
X18510285Y9898048D01*
X18462666Y10088524D01*
X18415047Y10183762D01*
X18319809Y10279000D01*
X18176952Y10326620D01*
X18081714Y10326620D01*
X17938857Y10279000D01*
X17891238Y10231381D01*
X17462666Y9850429D02*
X17129333Y9850429D01*
X16986476Y9326620D02*
X17462666Y9326620D01*
X17462666Y10326620D01*
X16986476Y10326620D01*
X15986476Y9326620D02*
X16319809Y9802810D01*
X16557904Y9326620D02*
X16557904Y10326620D01*
X16176952Y10326620D01*
X16081714Y10279000D01*
X16034095Y10231381D01*
X15986476Y10136143D01*
X15986476Y9993286D01*
X16034095Y9898048D01*
X16081714Y9850429D01*
X16176952Y9802810D01*
X16557904Y9802810D01*
X15557904Y9326620D02*
X15557904Y10326620D01*
X14986476Y9326620D01*
X14986476Y10326620D01*
X13557904Y10326620D02*
X13367428Y10326620D01*
X13272190Y10279000D01*
X13176952Y10183762D01*
X13129333Y9993286D01*
X13129333Y9659953D01*
X13176952Y9469477D01*
X13272190Y9374239D01*
X13367428Y9326620D01*
X13557904Y9326620D01*
X13653142Y9374239D01*
X13748380Y9469477D01*
X13796000Y9659953D01*
X13796000Y9993286D01*
X13748380Y10183762D01*
X13653142Y10279000D01*
X13557904Y10326620D01*
X12700761Y9326620D02*
X12700761Y10326620D01*
X12700761Y9850429D02*
X12129333Y9850429D01*
X12129333Y9326620D02*
X12129333Y10326620D01*
X11176952Y9326620D02*
X11653142Y9326620D01*
X11653142Y10326620D01*
X10176952Y9993286D02*
X9938857Y9326620D01*
X9700761Y9993286D01*
X9319809Y9421858D02*
X9272190Y9374239D01*
X9319809Y9326620D01*
X9367428Y9374239D01*
X9319809Y9421858D01*
X9319809Y9326620D01*
X8319809Y9326620D02*
X8891238Y9326620D01*
X8605523Y9326620D02*
X8605523Y10326620D01*
X8700761Y10183762D01*
X8796000Y10088524D01*
X8891238Y10040905D01*
X7891238Y9421858D02*
X7843619Y9374239D01*
X7891238Y9326620D01*
X7938857Y9374239D01*
X7891238Y9421858D01*
X7891238Y9326620D01*
X7510285Y10326620D02*
X6891238Y10326620D01*
X7224571Y9945667D01*
X7081714Y9945667D01*
X6986476Y9898048D01*
X6938857Y9850429D01*
X6891238Y9755191D01*
X6891238Y9517096D01*
X6938857Y9421858D01*
X6986476Y9374239D01*
X7081714Y9326620D01*
X7367428Y9326620D01*
X7462666Y9374239D01*
X7510285Y9421858D01*
X31034095Y12787286D02*
X31034095Y11977762D01*
X31081714Y11882524D01*
X31129333Y11834905D01*
X31224571Y11787286D01*
X31367428Y11787286D01*
X31462666Y11834905D01*
X31034095Y12168239D02*
X31129333Y12120620D01*
X31319809Y12120620D01*
X31415047Y12168239D01*
X31462666Y12215858D01*
X31510285Y12311096D01*
X31510285Y12596810D01*
X31462666Y12692048D01*
X31415047Y12739667D01*
X31319809Y12787286D01*
X31129333Y12787286D01*
X31034095Y12739667D01*
X30557904Y12120620D02*
X30557904Y12787286D01*
X30557904Y13120620D02*
X30605523Y13073000D01*
X30557904Y13025381D01*
X30510285Y13073000D01*
X30557904Y13120620D01*
X30557904Y13025381D01*
X30224571Y12787286D02*
X29843619Y12787286D01*
X30081714Y13120620D02*
X30081714Y12263477D01*
X30034095Y12168239D01*
X29938857Y12120620D01*
X29843619Y12120620D01*
X29510285Y12120620D02*
X29510285Y13120620D01*
X29081714Y12120620D02*
X29081714Y12644429D01*
X29129333Y12739667D01*
X29224571Y12787286D01*
X29367428Y12787286D01*
X29462666Y12739667D01*
X29510285Y12692048D01*
X28176952Y12787286D02*
X28176952Y12120620D01*
X28605523Y12787286D02*
X28605523Y12263477D01*
X28557904Y12168239D01*
X28462666Y12120620D01*
X28319809Y12120620D01*
X28224571Y12168239D01*
X28176952Y12215858D01*
X27700761Y12120620D02*
X27700761Y13120620D01*
X27700761Y12739667D02*
X27605523Y12787286D01*
X27415047Y12787286D01*
X27319809Y12739667D01*
X27272190Y12692048D01*
X27224571Y12596810D01*
X27224571Y12311096D01*
X27272190Y12215858D01*
X27319809Y12168239D01*
X27415047Y12120620D01*
X27605523Y12120620D01*
X27700761Y12168239D01*
X26796000Y12215858D02*
X26748380Y12168239D01*
X26796000Y12120620D01*
X26843619Y12168239D01*
X26796000Y12215858D01*
X26796000Y12120620D01*
X25891238Y12168239D02*
X25986476Y12120620D01*
X26176952Y12120620D01*
X26272190Y12168239D01*
X26319809Y12215858D01*
X26367428Y12311096D01*
X26367428Y12596810D01*
X26319809Y12692048D01*
X26272190Y12739667D01*
X26176952Y12787286D01*
X25986476Y12787286D01*
X25891238Y12739667D01*
X25319809Y12120620D02*
X25415047Y12168239D01*
X25462666Y12215858D01*
X25510285Y12311096D01*
X25510285Y12596810D01*
X25462666Y12692048D01*
X25415047Y12739667D01*
X25319809Y12787286D01*
X25176952Y12787286D01*
X25081714Y12739667D01*
X25034095Y12692048D01*
X24986476Y12596810D01*
X24986476Y12311096D01*
X25034095Y12215858D01*
X25081714Y12168239D01*
X25176952Y12120620D01*
X25319809Y12120620D01*
X24557904Y12120620D02*
X24557904Y12787286D01*
X24557904Y12692048D02*
X24510285Y12739667D01*
X24415047Y12787286D01*
X24272190Y12787286D01*
X24176952Y12739667D01*
X24129333Y12644429D01*
X24129333Y12120620D01*
X24129333Y12644429D02*
X24081714Y12739667D01*
X23986476Y12787286D01*
X23843619Y12787286D01*
X23748380Y12739667D01*
X23700761Y12644429D01*
X23700761Y12120620D01*
X22510285Y13168239D02*
X23367428Y11882524D01*
X22224571Y12168239D02*
X22081714Y12120620D01*
X21843619Y12120620D01*
X21748380Y12168239D01*
X21700761Y12215858D01*
X21653142Y12311096D01*
X21653142Y12406334D01*
X21700761Y12501572D01*
X21748380Y12549191D01*
X21843619Y12596810D01*
X22034095Y12644429D01*
X22129333Y12692048D01*
X22176952Y12739667D01*
X22224571Y12834905D01*
X22224571Y12930143D01*
X22176952Y13025381D01*
X22129333Y13073000D01*
X22034095Y13120620D01*
X21796000Y13120620D01*
X21653142Y13073000D01*
X20796000Y12787286D02*
X20796000Y12120620D01*
X21224571Y12787286D02*
X21224571Y12263477D01*
X21176952Y12168239D01*
X21081714Y12120620D01*
X20938857Y12120620D01*
X20843619Y12168239D01*
X20796000Y12215858D01*
X20319809Y12120620D02*
X20319809Y13120620D01*
X20224571Y12501572D02*
X19938857Y12120620D01*
X19938857Y12787286D02*
X20319809Y12406334D01*
X19510285Y12120620D02*
X19510285Y13120620D01*
X19415047Y12501572D02*
X19129333Y12120620D01*
X19129333Y12787286D02*
X19510285Y12406334D01*
X18557904Y12120620D02*
X18653142Y12168239D01*
X18700761Y12215858D01*
X18748380Y12311096D01*
X18748380Y12596810D01*
X18700761Y12692048D01*
X18653142Y12739667D01*
X18557904Y12787286D01*
X18415047Y12787286D01*
X18319809Y12739667D01*
X18272190Y12692048D01*
X18224571Y12596810D01*
X18224571Y12311096D01*
X18272190Y12215858D01*
X18319809Y12168239D01*
X18415047Y12120620D01*
X18557904Y12120620D01*
X17796000Y12120620D02*
X17796000Y13120620D01*
X17415047Y13120620D01*
X17319809Y13073000D01*
X17272190Y13025381D01*
X17224571Y12930143D01*
X17224571Y12787286D01*
X17272190Y12692048D01*
X17319809Y12644429D01*
X17415047Y12596810D01*
X17796000Y12596810D01*
X16415047Y12168239D02*
X16510285Y12120620D01*
X16700761Y12120620D01*
X16796000Y12168239D01*
X16843619Y12263477D01*
X16843619Y12644429D01*
X16796000Y12739667D01*
X16700761Y12787286D01*
X16510285Y12787286D01*
X16415047Y12739667D01*
X16367428Y12644429D01*
X16367428Y12549191D01*
X16843619Y12453953D01*
X15938857Y12120620D02*
X15938857Y12787286D01*
X15938857Y12596810D02*
X15891238Y12692048D01*
X15843619Y12739667D01*
X15748380Y12787286D01*
X15653142Y12787286D01*
X14891238Y12120620D02*
X14891238Y12644429D01*
X14938857Y12739667D01*
X15034095Y12787286D01*
X15224571Y12787286D01*
X15319809Y12739667D01*
X14891238Y12168239D02*
X14986476Y12120620D01*
X15224571Y12120620D01*
X15319809Y12168239D01*
X15367428Y12263477D01*
X15367428Y12358715D01*
X15319809Y12453953D01*
X15224571Y12501572D01*
X14986476Y12501572D01*
X14891238Y12549191D01*
X13700761Y13168239D02*
X14557904Y11882524D01*
X13176952Y13120620D02*
X12986476Y13120620D01*
X12891238Y13073000D01*
X12796000Y12977762D01*
X12748380Y12787286D01*
X12748380Y12453953D01*
X12796000Y12263477D01*
X12891238Y12168239D01*
X12986476Y12120620D01*
X13176952Y12120620D01*
X13272190Y12168239D01*
X13367428Y12263477D01*
X13415047Y12453953D01*
X13415047Y12787286D01*
X13367428Y12977762D01*
X13272190Y13073000D01*
X13176952Y13120620D01*
X12319809Y12787286D02*
X12319809Y11787286D01*
X12319809Y12739667D02*
X12224571Y12787286D01*
X12034095Y12787286D01*
X11938857Y12739667D01*
X11891238Y12692048D01*
X11843619Y12596810D01*
X11843619Y12311096D01*
X11891238Y12215858D01*
X11938857Y12168239D01*
X12034095Y12120620D01*
X12224571Y12120620D01*
X12319809Y12168239D01*
X11034095Y12168239D02*
X11129333Y12120620D01*
X11319809Y12120620D01*
X11415047Y12168239D01*
X11462666Y12263477D01*
X11462666Y12644429D01*
X11415047Y12739667D01*
X11319809Y12787286D01*
X11129333Y12787286D01*
X11034095Y12739667D01*
X10986476Y12644429D01*
X10986476Y12549191D01*
X11462666Y12453953D01*
X10557904Y12787286D02*
X10557904Y12120620D01*
X10557904Y12692048D02*
X10510285Y12739667D01*
X10415047Y12787286D01*
X10272190Y12787286D01*
X10176952Y12739667D01*
X10129333Y12644429D01*
X10129333Y12120620D01*
X9319809Y12644429D02*
X9653142Y12644429D01*
X9653142Y12120620D02*
X9653142Y13120620D01*
X9176952Y13120620D01*
X8653142Y12120620D02*
X8748380Y12168239D01*
X8796000Y12263477D01*
X8796000Y13120620D01*
X8129333Y12120620D02*
X8224571Y12168239D01*
X8272190Y12215858D01*
X8319809Y12311096D01*
X8319809Y12596810D01*
X8272190Y12692048D01*
X8224571Y12739667D01*
X8129333Y12787286D01*
X7986476Y12787286D01*
X7891238Y12739667D01*
X7843619Y12692048D01*
X7796000Y12596810D01*
X7796000Y12311096D01*
X7843619Y12215858D01*
X7891238Y12168239D01*
X7986476Y12120620D01*
X8129333Y12120620D01*
X7367428Y12787286D02*
X7367428Y11787286D01*
X7367428Y12739667D02*
X7272190Y12787286D01*
X7081714Y12787286D01*
X6986476Y12739667D01*
X6938857Y12692048D01*
X6891238Y12596810D01*
X6891238Y12311096D01*
X6938857Y12215858D01*
X6986476Y12168239D01*
X7081714Y12120620D01*
X7272190Y12120620D01*
X7367428Y12168239D01*
X6510285Y12168239D02*
X6415047Y12120620D01*
X6224571Y12120620D01*
X6129333Y12168239D01*
X6081714Y12263477D01*
X6081714Y12311096D01*
X6129333Y12406334D01*
X6224571Y12453953D01*
X6367428Y12453953D01*
X6462666Y12501572D01*
X6510285Y12596810D01*
X6510285Y12644429D01*
X6462666Y12739667D01*
X6367428Y12787286D01*
X6224571Y12787286D01*
X6129333Y12739667D01*
X45719809Y39620D02*
X45386476Y-960380D01*
X45053142Y39620D01*
X44196000Y-960380D02*
X44767428Y-960380D01*
X44481714Y-960380D02*
X44481714Y39620D01*
X44576952Y-103238D01*
X44672190Y-198476D01*
X44767428Y-246095D01*
X43767428Y-865142D02*
X43719809Y-912761D01*
X43767428Y-960380D01*
X43815047Y-912761D01*
X43767428Y-865142D01*
X43767428Y-960380D01*
X43386476Y39620D02*
X42767428Y39620D01*
X43100761Y-341333D01*
X42957904Y-341333D01*
X42862666Y-388952D01*
X42815047Y-436571D01*
X42767428Y-531809D01*
X42767428Y-769904D01*
X42815047Y-865142D01*
X42862666Y-912761D01*
X42957904Y-960380D01*
X43243619Y-960380D01*
X43338857Y-912761D01*
X43386476Y-865142D01*
M02*
