G04 #@! TF.GenerationSoftware,KiCad,Pcbnew,(6.0.9)*
G04 #@! TF.CreationDate,2022-12-15T10:14:16-07:00*
G04 #@! TF.ProjectId,OpenFlops,4f70656e-466c-46f7-9073-2e6b69636164,1*
G04 #@! TF.SameCoordinates,PX6312cb0PY6bcb370*
G04 #@! TF.FileFunction,Soldermask,Bot*
G04 #@! TF.FilePolarity,Negative*
%FSLAX46Y46*%
G04 Gerber Fmt 4.6, Leading zero omitted, Abs format (unit mm)*
G04 Created by KiCad (PCBNEW (6.0.9)) date 2022-12-15 10:14:16*
%MOMM*%
%LPD*%
G01*
G04 APERTURE LIST*
%ADD10C,1.700000*%
%ADD11O,1.700000X1.700000*%
%ADD12C,1.600000*%
%ADD13R,1.600000X1.600000*%
%ADD14C,1.800000*%
%ADD15R,1.800000X1.800000*%
%ADD16R,1.700000X1.700000*%
%ADD17C,1.500000*%
%ADD18C,3.000000*%
%ADD19C,1.428000*%
%ADD20C,1.508000*%
%ADD21C,1.950000*%
%ADD22C,2.500000*%
%ADD23C,5.000000*%
%ADD24C,1.400000*%
G04 APERTURE END LIST*
D10*
X4114000Y5555000D03*
D11*
X4114000Y3015000D03*
D12*
X31282000Y44704000D03*
D13*
X33782000Y44704000D03*
D12*
X18328000Y44704000D03*
D13*
X20828000Y44704000D03*
D14*
X91313000Y54168000D03*
D15*
X91313000Y51628000D03*
D11*
X-3556000Y0D03*
X-6096000Y0D03*
X-3556000Y2540000D03*
X-6096000Y2540000D03*
X-3556000Y5080000D03*
X-6096000Y5080000D03*
X-3556000Y7620000D03*
X-6096000Y7620000D03*
X-3556000Y10160000D03*
X-6096000Y10160000D03*
X-3556000Y12700000D03*
X-6096000Y12700000D03*
X-3556000Y15240000D03*
X-6096000Y15240000D03*
X-3556000Y17780000D03*
X-6096000Y17780000D03*
X-3556000Y20320000D03*
X-6096000Y20320000D03*
X-3556000Y22860000D03*
X-6096000Y22860000D03*
X-3556000Y25400000D03*
X-6096000Y25400000D03*
X-3556000Y27940000D03*
X-6096000Y27940000D03*
X-3556000Y30480000D03*
X-6096000Y30480000D03*
X-3556000Y33020000D03*
X-6096000Y33020000D03*
X-3556000Y35560000D03*
X-6096000Y35560000D03*
X-3556000Y38100000D03*
X-6096000Y38100000D03*
X-3556000Y40640000D03*
D16*
X-6096000Y40640000D03*
D17*
X51054000Y39824000D03*
X51054000Y44704000D03*
D12*
X83352000Y22225000D03*
D13*
X85852000Y22225000D03*
D18*
X93451500Y21277000D03*
X93451500Y34417000D03*
D19*
X90741500Y31347000D03*
X90741500Y28847000D03*
X90741500Y26847000D03*
X90741500Y24347000D03*
D20*
X98385000Y55051000D03*
X98385000Y50501000D03*
D21*
X95885000Y56276000D03*
D22*
X95885000Y49276000D03*
D20*
X98385000Y48051000D03*
X98385000Y43501000D03*
D21*
X95885000Y42276000D03*
X95885000Y49276000D03*
D23*
X14605000Y52387500D03*
X35687000Y52387500D03*
X14605000Y2667000D03*
X35687000Y2667000D03*
X85471000Y52387500D03*
D14*
X91313000Y49022000D03*
D15*
X91313000Y46482000D03*
D24*
X28090000Y-1016000D03*
X21590000Y-1016000D03*
D11*
X68834000Y52705000D03*
X66294000Y52705000D03*
X63754000Y52705000D03*
X61214000Y52705000D03*
D10*
X58674000Y52705000D03*
D11*
X42037000Y8763000D03*
X42037000Y11303000D03*
X42037000Y13843000D03*
D10*
X42037000Y16383000D03*
D11*
X97155000Y31967000D03*
X97155000Y29427000D03*
X97155000Y26887000D03*
D10*
X97155000Y24347000D03*
D11*
X4191000Y31750000D03*
X1651000Y31750000D03*
D10*
X-889000Y31750000D03*
D11*
X4191000Y29210000D03*
X1651000Y29210000D03*
D10*
X-889000Y29210000D03*
D11*
X4191000Y26670000D03*
X1651000Y26670000D03*
D10*
X-889000Y26670000D03*
D11*
X4191000Y24130000D03*
X1651000Y24130000D03*
D10*
X-889000Y24130000D03*
D11*
X-4318000Y54864000D03*
X-4318000Y52324000D03*
X-4318000Y49784000D03*
D10*
X-4318000Y47244000D03*
D11*
X1661000Y53594000D03*
X4201000Y53594000D03*
X1661000Y51054000D03*
X4201000Y51054000D03*
X1661000Y48514000D03*
X4201000Y48514000D03*
X1661000Y45974000D03*
X4201000Y45974000D03*
X1661000Y43434000D03*
D10*
X4201000Y43434000D03*
D11*
X4191000Y37211000D03*
D10*
X1651000Y37211000D03*
D11*
X26080000Y859000D03*
D16*
X23540000Y859000D03*
D10*
X79539000Y21030000D03*
D11*
X76999000Y21030000D03*
X74459000Y21030000D03*
X71919000Y21030000D03*
X69379000Y21030000D03*
X64224000Y21030000D03*
D10*
X66764000Y21030000D03*
M02*
