G04 #@! TF.GenerationSoftware,KiCad,Pcbnew,(6.0.9)*
G04 #@! TF.CreationDate,2022-12-15T10:14:16-07:00*
G04 #@! TF.ProjectId,OpenFlops,4f70656e-466c-46f7-9073-2e6b69636164,1*
G04 #@! TF.SameCoordinates,PX6312cb0PY6bcb370*
G04 #@! TF.FileFunction,Soldermask,Top*
G04 #@! TF.FilePolarity,Negative*
%FSLAX46Y46*%
G04 Gerber Fmt 4.6, Leading zero omitted, Abs format (unit mm)*
G04 Created by KiCad (PCBNEW (6.0.9)) date 2022-12-15 10:14:16*
%MOMM*%
%LPD*%
G01*
G04 APERTURE LIST*
G04 Aperture macros list*
%AMRoundRect*
0 Rectangle with rounded corners*
0 $1 Rounding radius*
0 $2 $3 $4 $5 $6 $7 $8 $9 X,Y pos of 4 corners*
0 Add a 4 corners polygon primitive as box body*
4,1,4,$2,$3,$4,$5,$6,$7,$8,$9,$2,$3,0*
0 Add four circle primitives for the rounded corners*
1,1,$1+$1,$2,$3*
1,1,$1+$1,$4,$5*
1,1,$1+$1,$6,$7*
1,1,$1+$1,$8,$9*
0 Add four rect primitives between the rounded corners*
20,1,$1+$1,$2,$3,$4,$5,0*
20,1,$1+$1,$4,$5,$6,$7,0*
20,1,$1+$1,$6,$7,$8,$9,0*
20,1,$1+$1,$8,$9,$2,$3,0*%
G04 Aperture macros list end*
%ADD10C,1.700000*%
%ADD11O,1.700000X1.700000*%
%ADD12RoundRect,0.250000X0.450000X-0.325000X0.450000X0.325000X-0.450000X0.325000X-0.450000X-0.325000X0*%
%ADD13RoundRect,0.250000X-0.450000X0.325000X-0.450000X-0.325000X0.450000X-0.325000X0.450000X0.325000X0*%
%ADD14RoundRect,0.250000X0.325000X0.450000X-0.325000X0.450000X-0.325000X-0.450000X0.325000X-0.450000X0*%
%ADD15C,1.600000*%
%ADD16R,1.600000X1.600000*%
%ADD17C,1.800000*%
%ADD18R,1.800000X1.800000*%
%ADD19R,1.700000X1.700000*%
%ADD20RoundRect,0.250000X-0.325000X-0.450000X0.325000X-0.450000X0.325000X0.450000X-0.325000X0.450000X0*%
%ADD21RoundRect,0.150000X-0.825000X-0.150000X0.825000X-0.150000X0.825000X0.150000X-0.825000X0.150000X0*%
%ADD22R,1.500000X2.000000*%
%ADD23R,3.800000X2.000000*%
%ADD24C,1.500000*%
%ADD25C,3.000000*%
%ADD26C,1.428000*%
%ADD27C,1.508000*%
%ADD28C,1.950000*%
%ADD29C,2.500000*%
%ADD30C,5.000000*%
%ADD31R,1.400000X5.000000*%
%ADD32C,1.400000*%
%ADD33R,1.900000X0.800000*%
%ADD34R,1.000000X1.000000*%
%ADD35RoundRect,0.075000X-0.075000X-1.075000X0.075000X-1.075000X0.075000X1.075000X-0.075000X1.075000X0*%
%ADD36RoundRect,0.075000X-1.075000X-0.075000X1.075000X-0.075000X1.075000X0.075000X-1.075000X0.075000X0*%
%ADD37C,1.000000*%
G04 APERTURE END LIST*
D10*
X4114000Y5555000D03*
D11*
X4114000Y3015000D03*
D12*
X46228000Y45729000D03*
X46228000Y43679000D03*
D13*
X43180000Y38853000D03*
X43180000Y40903000D03*
X46228000Y38853000D03*
X46228000Y40903000D03*
D12*
X55880000Y45221000D03*
X55880000Y43171000D03*
X77216000Y40598000D03*
X77216000Y38548000D03*
D14*
X58954000Y25400000D03*
X61004000Y25400000D03*
D12*
X51054000Y34045000D03*
X51054000Y31995000D03*
D15*
X31282000Y44704000D03*
D16*
X33782000Y44704000D03*
D14*
X31574620Y39624000D03*
X33624620Y39624000D03*
D15*
X18328000Y44704000D03*
D16*
X20828000Y44704000D03*
D14*
X36313000Y34290000D03*
X38363000Y34290000D03*
D12*
X20828000Y53494000D03*
X20828000Y51444000D03*
D17*
X91313000Y54168000D03*
D18*
X91313000Y51628000D03*
D11*
X-3556000Y0D03*
X-6096000Y0D03*
X-3556000Y2540000D03*
X-6096000Y2540000D03*
X-3556000Y5080000D03*
X-6096000Y5080000D03*
X-3556000Y7620000D03*
X-6096000Y7620000D03*
X-3556000Y10160000D03*
X-6096000Y10160000D03*
X-3556000Y12700000D03*
X-6096000Y12700000D03*
X-3556000Y15240000D03*
X-6096000Y15240000D03*
X-3556000Y17780000D03*
X-6096000Y17780000D03*
X-3556000Y20320000D03*
X-6096000Y20320000D03*
X-3556000Y22860000D03*
X-6096000Y22860000D03*
X-3556000Y25400000D03*
X-6096000Y25400000D03*
X-3556000Y27940000D03*
X-6096000Y27940000D03*
X-3556000Y30480000D03*
X-6096000Y30480000D03*
X-3556000Y33020000D03*
X-6096000Y33020000D03*
X-3556000Y35560000D03*
X-6096000Y35560000D03*
X-3556000Y38100000D03*
X-6096000Y38100000D03*
X-3556000Y40640000D03*
D19*
X-6096000Y40640000D03*
D14*
X13580000Y38354000D03*
X15630000Y38354000D03*
X13580000Y36068000D03*
X15630000Y36068000D03*
X13580000Y33782000D03*
X15630000Y33782000D03*
X18025000Y21590000D03*
X20075000Y21590000D03*
X13580000Y21590000D03*
X15630000Y21590000D03*
X18025000Y18542000D03*
X20075000Y18542000D03*
X13580000Y18542000D03*
X15630000Y18542000D03*
X18025000Y15494000D03*
X20075000Y15494000D03*
X13580000Y15494000D03*
X15630000Y15494000D03*
X18025000Y12446000D03*
X20075000Y12446000D03*
X13580000Y12446000D03*
X15630000Y12446000D03*
X13580000Y9398000D03*
X15630000Y9398000D03*
X18025000Y9398000D03*
X20075000Y9398000D03*
X85652500Y28847000D03*
X87702500Y28847000D03*
X85652500Y26847000D03*
X87702500Y26847000D03*
D13*
X43180000Y43679000D03*
X43180000Y45729000D03*
D14*
X84890500Y47879000D03*
X86940500Y47879000D03*
D20*
X28965000Y35814000D03*
X26915000Y35814000D03*
X28965000Y32258000D03*
X26915000Y32258000D03*
X28965000Y28448000D03*
X26915000Y28448000D03*
X33283000Y12446000D03*
X31233000Y12446000D03*
X33283000Y18542000D03*
X31233000Y18542000D03*
X33283000Y21590000D03*
X31233000Y21590000D03*
D21*
X39813000Y31623000D03*
X39813000Y30353000D03*
X39813000Y29083000D03*
X39813000Y27813000D03*
X39813000Y26543000D03*
X39813000Y25273000D03*
X39813000Y24003000D03*
X34863000Y24003000D03*
X34863000Y25273000D03*
X34863000Y26543000D03*
X34863000Y27813000D03*
X34863000Y29083000D03*
X34863000Y30353000D03*
X34863000Y31623000D03*
D22*
X28422620Y48920000D03*
X26122620Y48920000D03*
D23*
X26122620Y55220000D03*
D22*
X23822620Y48920000D03*
D24*
X51054000Y39824000D03*
X51054000Y44704000D03*
D15*
X83352000Y22225000D03*
D16*
X85852000Y22225000D03*
D14*
X13580000Y40640000D03*
X15630000Y40640000D03*
D25*
X93451500Y21277000D03*
X93451500Y34417000D03*
D26*
X90741500Y31347000D03*
X90741500Y28847000D03*
X90741500Y26847000D03*
X90741500Y24347000D03*
D27*
X98385000Y55051000D03*
X98385000Y50501000D03*
D28*
X95885000Y56276000D03*
D29*
X95885000Y49276000D03*
D27*
X98385000Y48051000D03*
X98385000Y43501000D03*
D28*
X95885000Y42276000D03*
X95885000Y49276000D03*
D30*
X14605000Y52387500D03*
X35687000Y52387500D03*
X14605000Y2667000D03*
X35687000Y2667000D03*
X85471000Y52387500D03*
D17*
X91313000Y49022000D03*
D18*
X91313000Y46482000D03*
D14*
X13580000Y29210000D03*
X15630000Y29210000D03*
D20*
X15630000Y31496000D03*
X13580000Y31496000D03*
D12*
X42037000Y3819000D03*
X42037000Y1769000D03*
X44577000Y3810000D03*
X44577000Y1760000D03*
D20*
X33283000Y9398000D03*
X31233000Y9398000D03*
X20075000Y6350000D03*
X18025000Y6350000D03*
D14*
X84890500Y45212000D03*
X86940500Y45212000D03*
D31*
X28090000Y734000D03*
D32*
X28090000Y-1016000D03*
D31*
X21590000Y734000D03*
D32*
X21590000Y-1016000D03*
D33*
X25297000Y10198000D03*
X28297000Y11148000D03*
X28297000Y9248000D03*
D11*
X68834000Y52705000D03*
X66294000Y52705000D03*
X63754000Y52705000D03*
X61214000Y52705000D03*
D10*
X58674000Y52705000D03*
D11*
X42037000Y8763000D03*
X42037000Y11303000D03*
X42037000Y13843000D03*
D10*
X42037000Y16383000D03*
D20*
X71764000Y25400000D03*
X69714000Y25400000D03*
D33*
X20852000Y36068000D03*
X23852000Y37018000D03*
X23852000Y35118000D03*
X20852000Y32004000D03*
X23852000Y32954000D03*
X23852000Y31054000D03*
X20852000Y27940000D03*
X23852000Y28890000D03*
X23852000Y26990000D03*
X25297000Y13995334D03*
X28297000Y14945334D03*
X28297000Y13045334D03*
X25297000Y17792667D03*
X28297000Y18742667D03*
X28297000Y16842667D03*
X25297000Y21590000D03*
X28297000Y22540000D03*
X28297000Y20640000D03*
D34*
X31233000Y15494000D03*
X33733000Y15494000D03*
X28797000Y6350000D03*
X26297000Y6350000D03*
D11*
X97155000Y31967000D03*
X97155000Y29427000D03*
X97155000Y26887000D03*
D10*
X97155000Y24347000D03*
D11*
X4191000Y31750000D03*
X1651000Y31750000D03*
D10*
X-889000Y31750000D03*
D11*
X4191000Y29210000D03*
X1651000Y29210000D03*
D10*
X-889000Y29210000D03*
D11*
X4191000Y26670000D03*
X1651000Y26670000D03*
D10*
X-889000Y26670000D03*
D11*
X4191000Y24130000D03*
X1651000Y24130000D03*
D10*
X-889000Y24130000D03*
D11*
X-4318000Y54864000D03*
X-4318000Y52324000D03*
X-4318000Y49784000D03*
D10*
X-4318000Y47244000D03*
D11*
X1661000Y53594000D03*
X4201000Y53594000D03*
X1661000Y51054000D03*
X4201000Y51054000D03*
X1661000Y48514000D03*
X4201000Y48514000D03*
X1661000Y45974000D03*
X4201000Y45974000D03*
X1661000Y43434000D03*
D10*
X4201000Y43434000D03*
D11*
X4191000Y37211000D03*
D10*
X1651000Y37211000D03*
D11*
X26080000Y859000D03*
D19*
X23540000Y859000D03*
D35*
X60004000Y40798000D03*
X60504000Y40798000D03*
X61004000Y40798000D03*
X61504000Y40798000D03*
X62004000Y40798000D03*
X62504000Y40798000D03*
X63004000Y40798000D03*
X63504000Y40798000D03*
X64004000Y40798000D03*
X64504000Y40798000D03*
X65004000Y40798000D03*
X65504000Y40798000D03*
X66004000Y40798000D03*
X66504000Y40798000D03*
X67004000Y40798000D03*
X67504000Y40798000D03*
D36*
X69754000Y38548000D03*
X69754000Y38048000D03*
X69754000Y37548000D03*
X69754000Y37048000D03*
X69754000Y36548000D03*
X69754000Y36048000D03*
X69754000Y35548000D03*
X69754000Y35048000D03*
X69754000Y34548000D03*
X69754000Y34048000D03*
X69754000Y33548000D03*
X69754000Y33048000D03*
X69754000Y32548000D03*
X69754000Y32048000D03*
X69754000Y31548000D03*
X69754000Y31048000D03*
D35*
X67504000Y28798000D03*
X67004000Y28798000D03*
X66504000Y28798000D03*
X66004000Y28798000D03*
X65504000Y28798000D03*
X65004000Y28798000D03*
X64504000Y28798000D03*
X64004000Y28798000D03*
X63504000Y28798000D03*
X63004000Y28798000D03*
X62504000Y28798000D03*
X62004000Y28798000D03*
X61504000Y28798000D03*
X61004000Y28798000D03*
X60504000Y28798000D03*
X60004000Y28798000D03*
D36*
X57754000Y31048000D03*
X57754000Y31548000D03*
X57754000Y32048000D03*
X57754000Y32548000D03*
X57754000Y33048000D03*
X57754000Y33548000D03*
X57754000Y34048000D03*
X57754000Y34548000D03*
X57754000Y35048000D03*
X57754000Y35548000D03*
X57754000Y36048000D03*
X57754000Y36548000D03*
X57754000Y37048000D03*
X57754000Y37548000D03*
X57754000Y38048000D03*
X57754000Y38548000D03*
D20*
X71764000Y27686000D03*
X69714000Y27686000D03*
D37*
X71755000Y29845000D03*
D24*
X0Y0D03*
X99822000Y52832000D03*
X99822000Y22606000D03*
D10*
X79539000Y21030000D03*
D11*
X76999000Y21030000D03*
X74459000Y21030000D03*
X71919000Y21030000D03*
X69379000Y21030000D03*
X64224000Y21030000D03*
D10*
X66764000Y21030000D03*
G36*
X67360279Y29896431D02*
G01*
X67360447Y29895157D01*
X67356000Y29872801D01*
X67356000Y27723199D01*
X67360447Y27700843D01*
X67359804Y27698949D01*
X67357842Y27698559D01*
X67356822Y27699342D01*
X67356431Y27699927D01*
X67303055Y27744535D01*
X67234340Y27753167D01*
X67171710Y27723203D01*
X67151658Y27700060D01*
X67151178Y27699342D01*
X67149384Y27698457D01*
X67147721Y27699569D01*
X67147553Y27700843D01*
X67152000Y27723199D01*
X67152000Y29872801D01*
X67147553Y29895157D01*
X67148196Y29897051D01*
X67150158Y29897441D01*
X67151178Y29896658D01*
X67151569Y29896073D01*
X67204945Y29851465D01*
X67273660Y29842833D01*
X67336290Y29872797D01*
X67356342Y29895940D01*
X67356822Y29896658D01*
X67358616Y29897543D01*
X67360279Y29896431D01*
G37*
G36*
X65360279Y29896431D02*
G01*
X65360447Y29895157D01*
X65356000Y29872801D01*
X65356000Y27723199D01*
X65360447Y27700843D01*
X65359804Y27698949D01*
X65357842Y27698559D01*
X65356822Y27699342D01*
X65356431Y27699927D01*
X65303055Y27744535D01*
X65234340Y27753167D01*
X65171710Y27723203D01*
X65151658Y27700060D01*
X65151178Y27699342D01*
X65149384Y27698457D01*
X65147721Y27699569D01*
X65147553Y27700843D01*
X65152000Y27723199D01*
X65152000Y29872801D01*
X65147553Y29895157D01*
X65148196Y29897051D01*
X65150158Y29897441D01*
X65151178Y29896658D01*
X65151569Y29896073D01*
X65204945Y29851465D01*
X65273660Y29842833D01*
X65336290Y29872797D01*
X65356342Y29895940D01*
X65356822Y29896658D01*
X65358616Y29897543D01*
X65360279Y29896431D01*
G37*
G36*
X64860279Y29896431D02*
G01*
X64860447Y29895157D01*
X64856000Y29872801D01*
X64856000Y27723199D01*
X64860447Y27700843D01*
X64859804Y27698949D01*
X64857842Y27698559D01*
X64856822Y27699342D01*
X64856431Y27699927D01*
X64803055Y27744535D01*
X64734340Y27753167D01*
X64671710Y27723203D01*
X64651658Y27700060D01*
X64651178Y27699342D01*
X64649384Y27698457D01*
X64647721Y27699569D01*
X64647553Y27700843D01*
X64652000Y27723199D01*
X64652000Y29872801D01*
X64647553Y29895157D01*
X64648196Y29897051D01*
X64650158Y29897441D01*
X64651178Y29896658D01*
X64651569Y29896073D01*
X64704945Y29851465D01*
X64773660Y29842833D01*
X64836290Y29872797D01*
X64856342Y29895940D01*
X64856822Y29896658D01*
X64858616Y29897543D01*
X64860279Y29896431D01*
G37*
G36*
X62860279Y29896431D02*
G01*
X62860447Y29895157D01*
X62856000Y29872801D01*
X62856000Y27723199D01*
X62860447Y27700843D01*
X62859804Y27698949D01*
X62857842Y27698559D01*
X62856822Y27699342D01*
X62856431Y27699927D01*
X62803055Y27744535D01*
X62734340Y27753167D01*
X62671710Y27723203D01*
X62651658Y27700060D01*
X62651178Y27699342D01*
X62649384Y27698457D01*
X62647721Y27699569D01*
X62647553Y27700843D01*
X62652000Y27723199D01*
X62652000Y29872801D01*
X62647553Y29895157D01*
X62648196Y29897051D01*
X62650158Y29897441D01*
X62651178Y29896658D01*
X62651569Y29896073D01*
X62704945Y29851465D01*
X62773660Y29842833D01*
X62836290Y29872797D01*
X62856342Y29895940D01*
X62856822Y29896658D01*
X62858616Y29897543D01*
X62860279Y29896431D01*
G37*
G36*
X61860279Y29896431D02*
G01*
X61860447Y29895157D01*
X61856000Y29872801D01*
X61856000Y27723199D01*
X61860447Y27700843D01*
X61859804Y27698949D01*
X61857842Y27698559D01*
X61856822Y27699342D01*
X61856431Y27699927D01*
X61803055Y27744535D01*
X61734340Y27753167D01*
X61671710Y27723203D01*
X61651658Y27700060D01*
X61651178Y27699342D01*
X61649384Y27698457D01*
X61647721Y27699569D01*
X61647553Y27700843D01*
X61652000Y27723199D01*
X61652000Y29872801D01*
X61647553Y29895157D01*
X61648196Y29897051D01*
X61650158Y29897441D01*
X61651178Y29896658D01*
X61651569Y29896073D01*
X61704945Y29851465D01*
X61773660Y29842833D01*
X61836290Y29872797D01*
X61856342Y29895940D01*
X61856822Y29896658D01*
X61858616Y29897543D01*
X61860279Y29896431D01*
G37*
G36*
X64360279Y29896431D02*
G01*
X64360447Y29895157D01*
X64356000Y29872801D01*
X64356000Y27723199D01*
X64360447Y27700843D01*
X64359804Y27698949D01*
X64357842Y27698559D01*
X64356822Y27699342D01*
X64356431Y27699927D01*
X64303055Y27744535D01*
X64234340Y27753167D01*
X64171710Y27723203D01*
X64151658Y27700060D01*
X64151178Y27699342D01*
X64149384Y27698457D01*
X64147721Y27699569D01*
X64147553Y27700843D01*
X64152000Y27723199D01*
X64152000Y29872801D01*
X64147553Y29895157D01*
X64148196Y29897051D01*
X64150158Y29897441D01*
X64151178Y29896658D01*
X64151569Y29896073D01*
X64204945Y29851465D01*
X64273660Y29842833D01*
X64336290Y29872797D01*
X64356342Y29895940D01*
X64356822Y29896658D01*
X64358616Y29897543D01*
X64360279Y29896431D01*
G37*
G36*
X66360279Y29896431D02*
G01*
X66360447Y29895157D01*
X66356000Y29872801D01*
X66356000Y27723199D01*
X66360447Y27700843D01*
X66359804Y27698949D01*
X66357842Y27698559D01*
X66356822Y27699342D01*
X66356431Y27699927D01*
X66303055Y27744535D01*
X66234340Y27753167D01*
X66171710Y27723203D01*
X66151658Y27700060D01*
X66151178Y27699342D01*
X66149384Y27698457D01*
X66147721Y27699569D01*
X66147553Y27700843D01*
X66152000Y27723199D01*
X66152000Y29872801D01*
X66147553Y29895157D01*
X66148196Y29897051D01*
X66150158Y29897441D01*
X66151178Y29896658D01*
X66151569Y29896073D01*
X66204945Y29851465D01*
X66273660Y29842833D01*
X66336290Y29872797D01*
X66356342Y29895940D01*
X66356822Y29896658D01*
X66358616Y29897543D01*
X66360279Y29896431D01*
G37*
G36*
X62360279Y29896431D02*
G01*
X62360447Y29895157D01*
X62356000Y29872801D01*
X62356000Y27723199D01*
X62360447Y27700843D01*
X62359804Y27698949D01*
X62357842Y27698559D01*
X62356822Y27699342D01*
X62356431Y27699927D01*
X62303055Y27744535D01*
X62234340Y27753167D01*
X62171710Y27723203D01*
X62151658Y27700060D01*
X62151178Y27699342D01*
X62149384Y27698457D01*
X62147721Y27699569D01*
X62147553Y27700843D01*
X62152000Y27723199D01*
X62152000Y29872801D01*
X62147553Y29895157D01*
X62148196Y29897051D01*
X62150158Y29897441D01*
X62151178Y29896658D01*
X62151569Y29896073D01*
X62204945Y29851465D01*
X62273660Y29842833D01*
X62336290Y29872797D01*
X62356342Y29895940D01*
X62356822Y29896658D01*
X62358616Y29897543D01*
X62360279Y29896431D01*
G37*
G36*
X63860279Y29896431D02*
G01*
X63860447Y29895157D01*
X63856000Y29872801D01*
X63856000Y27723199D01*
X63860447Y27700843D01*
X63859804Y27698949D01*
X63857842Y27698559D01*
X63856822Y27699342D01*
X63856431Y27699927D01*
X63803055Y27744535D01*
X63734340Y27753167D01*
X63671710Y27723203D01*
X63651658Y27700060D01*
X63651178Y27699342D01*
X63649384Y27698457D01*
X63647721Y27699569D01*
X63647553Y27700843D01*
X63652000Y27723199D01*
X63652000Y29872801D01*
X63647553Y29895157D01*
X63648196Y29897051D01*
X63650158Y29897441D01*
X63651178Y29896658D01*
X63651569Y29896073D01*
X63704945Y29851465D01*
X63773660Y29842833D01*
X63836290Y29872797D01*
X63856342Y29895940D01*
X63856822Y29896658D01*
X63858616Y29897543D01*
X63860279Y29896431D01*
G37*
G36*
X60360279Y29896431D02*
G01*
X60360447Y29895157D01*
X60356000Y29872801D01*
X60356000Y27723199D01*
X60360447Y27700843D01*
X60359804Y27698949D01*
X60357842Y27698559D01*
X60356822Y27699342D01*
X60356431Y27699927D01*
X60303055Y27744535D01*
X60234340Y27753167D01*
X60171710Y27723203D01*
X60151658Y27700060D01*
X60151178Y27699342D01*
X60149384Y27698457D01*
X60147721Y27699569D01*
X60147553Y27700843D01*
X60152000Y27723199D01*
X60152000Y29872801D01*
X60147553Y29895157D01*
X60148196Y29897051D01*
X60150158Y29897441D01*
X60151178Y29896658D01*
X60151569Y29896073D01*
X60204945Y29851465D01*
X60273660Y29842833D01*
X60336290Y29872797D01*
X60356342Y29895940D01*
X60356822Y29896658D01*
X60358616Y29897543D01*
X60360279Y29896431D01*
G37*
G36*
X65860279Y29896431D02*
G01*
X65860447Y29895157D01*
X65856000Y29872801D01*
X65856000Y27723199D01*
X65860447Y27700843D01*
X65859804Y27698949D01*
X65857842Y27698559D01*
X65856822Y27699342D01*
X65856431Y27699927D01*
X65803055Y27744535D01*
X65734340Y27753167D01*
X65671710Y27723203D01*
X65651658Y27700060D01*
X65651178Y27699342D01*
X65649384Y27698457D01*
X65647721Y27699569D01*
X65647553Y27700843D01*
X65652000Y27723199D01*
X65652000Y29872801D01*
X65647553Y29895157D01*
X65648196Y29897051D01*
X65650158Y29897441D01*
X65651178Y29896658D01*
X65651569Y29896073D01*
X65704945Y29851465D01*
X65773660Y29842833D01*
X65836290Y29872797D01*
X65856342Y29895940D01*
X65856822Y29896658D01*
X65858616Y29897543D01*
X65860279Y29896431D01*
G37*
G36*
X63360279Y29896431D02*
G01*
X63360447Y29895157D01*
X63356000Y29872801D01*
X63356000Y27723199D01*
X63360447Y27700843D01*
X63359804Y27698949D01*
X63357842Y27698559D01*
X63356822Y27699342D01*
X63356431Y27699927D01*
X63303055Y27744535D01*
X63234340Y27753167D01*
X63171710Y27723203D01*
X63151658Y27700060D01*
X63151178Y27699342D01*
X63149384Y27698457D01*
X63147721Y27699569D01*
X63147553Y27700843D01*
X63152000Y27723199D01*
X63152000Y29872801D01*
X63147553Y29895157D01*
X63148196Y29897051D01*
X63150158Y29897441D01*
X63151178Y29896658D01*
X63151569Y29896073D01*
X63204945Y29851465D01*
X63273660Y29842833D01*
X63336290Y29872797D01*
X63356342Y29895940D01*
X63356822Y29896658D01*
X63358616Y29897543D01*
X63360279Y29896431D01*
G37*
G36*
X66860279Y29896431D02*
G01*
X66860447Y29895157D01*
X66856000Y29872801D01*
X66856000Y27723199D01*
X66860447Y27700843D01*
X66859804Y27698949D01*
X66857842Y27698559D01*
X66856822Y27699342D01*
X66856431Y27699927D01*
X66803055Y27744535D01*
X66734340Y27753167D01*
X66671710Y27723203D01*
X66651658Y27700060D01*
X66651178Y27699342D01*
X66649384Y27698457D01*
X66647721Y27699569D01*
X66647553Y27700843D01*
X66652000Y27723199D01*
X66652000Y29872801D01*
X66647553Y29895157D01*
X66648196Y29897051D01*
X66650158Y29897441D01*
X66651178Y29896658D01*
X66651569Y29896073D01*
X66704945Y29851465D01*
X66773660Y29842833D01*
X66836290Y29872797D01*
X66856342Y29895940D01*
X66856822Y29896658D01*
X66858616Y29897543D01*
X66860279Y29896431D01*
G37*
G36*
X60860279Y29896431D02*
G01*
X60860447Y29895157D01*
X60856000Y29872801D01*
X60856000Y27723199D01*
X60860447Y27700843D01*
X60859804Y27698949D01*
X60857842Y27698559D01*
X60856822Y27699342D01*
X60856431Y27699927D01*
X60803055Y27744535D01*
X60734340Y27753167D01*
X60671710Y27723203D01*
X60651658Y27700060D01*
X60651178Y27699342D01*
X60649384Y27698457D01*
X60647721Y27699569D01*
X60647553Y27700843D01*
X60652000Y27723199D01*
X60652000Y29872801D01*
X60647553Y29895157D01*
X60648196Y29897051D01*
X60650158Y29897441D01*
X60651178Y29896658D01*
X60651569Y29896073D01*
X60704945Y29851465D01*
X60773660Y29842833D01*
X60836290Y29872797D01*
X60856342Y29895940D01*
X60856822Y29896658D01*
X60858616Y29897543D01*
X60860279Y29896431D01*
G37*
G36*
X61360279Y29896431D02*
G01*
X61360447Y29895157D01*
X61356000Y29872801D01*
X61356000Y27723199D01*
X61360447Y27700843D01*
X61359804Y27698949D01*
X61357842Y27698559D01*
X61356822Y27699342D01*
X61356431Y27699927D01*
X61303055Y27744535D01*
X61234340Y27753167D01*
X61171710Y27723203D01*
X61151658Y27700060D01*
X61151178Y27699342D01*
X61149384Y27698457D01*
X61147721Y27699569D01*
X61147553Y27700843D01*
X61152000Y27723199D01*
X61152000Y29872801D01*
X61147553Y29895157D01*
X61148196Y29897051D01*
X61150158Y29897441D01*
X61151178Y29896658D01*
X61151569Y29896073D01*
X61204945Y29851465D01*
X61273660Y29842833D01*
X61336290Y29872797D01*
X61356342Y29895940D01*
X61356822Y29896658D01*
X61358616Y29897543D01*
X61360279Y29896431D01*
G37*
G36*
X58853051Y31403804D02*
G01*
X58853441Y31401842D01*
X58852658Y31400822D01*
X58852073Y31400431D01*
X58807465Y31347055D01*
X58798833Y31278340D01*
X58828797Y31215710D01*
X58851940Y31195658D01*
X58852658Y31195178D01*
X58853543Y31193384D01*
X58852431Y31191721D01*
X58851157Y31191553D01*
X58828801Y31196000D01*
X56679199Y31196000D01*
X56656843Y31191553D01*
X56654949Y31192196D01*
X56654559Y31194158D01*
X56655342Y31195178D01*
X56655927Y31195569D01*
X56700535Y31248945D01*
X56709167Y31317660D01*
X56679203Y31380290D01*
X56656060Y31400342D01*
X56655342Y31400822D01*
X56654457Y31402616D01*
X56655569Y31404279D01*
X56656843Y31404447D01*
X56679199Y31400000D01*
X58828801Y31400000D01*
X58851157Y31404447D01*
X58853051Y31403804D01*
G37*
G36*
X70853051Y31403804D02*
G01*
X70853441Y31401842D01*
X70852658Y31400822D01*
X70852073Y31400431D01*
X70807465Y31347055D01*
X70798833Y31278340D01*
X70828797Y31215710D01*
X70851940Y31195658D01*
X70852658Y31195178D01*
X70853543Y31193384D01*
X70852431Y31191721D01*
X70851157Y31191553D01*
X70828801Y31196000D01*
X68679199Y31196000D01*
X68656843Y31191553D01*
X68654949Y31192196D01*
X68654559Y31194158D01*
X68655342Y31195178D01*
X68655927Y31195569D01*
X68700535Y31248945D01*
X68709167Y31317660D01*
X68679203Y31380290D01*
X68656060Y31400342D01*
X68655342Y31400822D01*
X68654457Y31402616D01*
X68655569Y31404279D01*
X68656843Y31404447D01*
X68679199Y31400000D01*
X70828801Y31400000D01*
X70851157Y31404447D01*
X70853051Y31403804D01*
G37*
G36*
X70853051Y31903804D02*
G01*
X70853441Y31901842D01*
X70852658Y31900822D01*
X70852073Y31900431D01*
X70807465Y31847055D01*
X70798833Y31778340D01*
X70828797Y31715710D01*
X70851940Y31695658D01*
X70852658Y31695178D01*
X70853543Y31693384D01*
X70852431Y31691721D01*
X70851157Y31691553D01*
X70828801Y31696000D01*
X68679199Y31696000D01*
X68656843Y31691553D01*
X68654949Y31692196D01*
X68654559Y31694158D01*
X68655342Y31695178D01*
X68655927Y31695569D01*
X68700535Y31748945D01*
X68709167Y31817660D01*
X68679203Y31880290D01*
X68656060Y31900342D01*
X68655342Y31900822D01*
X68654457Y31902616D01*
X68655569Y31904279D01*
X68656843Y31904447D01*
X68679199Y31900000D01*
X70828801Y31900000D01*
X70851157Y31904447D01*
X70853051Y31903804D01*
G37*
G36*
X58853051Y31903804D02*
G01*
X58853441Y31901842D01*
X58852658Y31900822D01*
X58852073Y31900431D01*
X58807465Y31847055D01*
X58798833Y31778340D01*
X58828797Y31715710D01*
X58851940Y31695658D01*
X58852658Y31695178D01*
X58853543Y31693384D01*
X58852431Y31691721D01*
X58851157Y31691553D01*
X58828801Y31696000D01*
X56679199Y31696000D01*
X56656843Y31691553D01*
X56654949Y31692196D01*
X56654559Y31694158D01*
X56655342Y31695178D01*
X56655927Y31695569D01*
X56700535Y31748945D01*
X56709167Y31817660D01*
X56679203Y31880290D01*
X56656060Y31900342D01*
X56655342Y31900822D01*
X56654457Y31902616D01*
X56655569Y31904279D01*
X56656843Y31904447D01*
X56679199Y31900000D01*
X58828801Y31900000D01*
X58851157Y31904447D01*
X58853051Y31903804D01*
G37*
G36*
X58853051Y32403804D02*
G01*
X58853441Y32401842D01*
X58852658Y32400822D01*
X58852073Y32400431D01*
X58807465Y32347055D01*
X58798833Y32278340D01*
X58828797Y32215710D01*
X58851940Y32195658D01*
X58852658Y32195178D01*
X58853543Y32193384D01*
X58852431Y32191721D01*
X58851157Y32191553D01*
X58828801Y32196000D01*
X56679199Y32196000D01*
X56656843Y32191553D01*
X56654949Y32192196D01*
X56654559Y32194158D01*
X56655342Y32195178D01*
X56655927Y32195569D01*
X56700535Y32248945D01*
X56709167Y32317660D01*
X56679203Y32380290D01*
X56656060Y32400342D01*
X56655342Y32400822D01*
X56654457Y32402616D01*
X56655569Y32404279D01*
X56656843Y32404447D01*
X56679199Y32400000D01*
X58828801Y32400000D01*
X58851157Y32404447D01*
X58853051Y32403804D01*
G37*
G36*
X70853051Y32403804D02*
G01*
X70853441Y32401842D01*
X70852658Y32400822D01*
X70852073Y32400431D01*
X70807465Y32347055D01*
X70798833Y32278340D01*
X70828797Y32215710D01*
X70851940Y32195658D01*
X70852658Y32195178D01*
X70853543Y32193384D01*
X70852431Y32191721D01*
X70851157Y32191553D01*
X70828801Y32196000D01*
X68679199Y32196000D01*
X68656843Y32191553D01*
X68654949Y32192196D01*
X68654559Y32194158D01*
X68655342Y32195178D01*
X68655927Y32195569D01*
X68700535Y32248945D01*
X68709167Y32317660D01*
X68679203Y32380290D01*
X68656060Y32400342D01*
X68655342Y32400822D01*
X68654457Y32402616D01*
X68655569Y32404279D01*
X68656843Y32404447D01*
X68679199Y32400000D01*
X70828801Y32400000D01*
X70851157Y32404447D01*
X70853051Y32403804D01*
G37*
G36*
X58853051Y32903804D02*
G01*
X58853441Y32901842D01*
X58852658Y32900822D01*
X58852073Y32900431D01*
X58807465Y32847055D01*
X58798833Y32778340D01*
X58828797Y32715710D01*
X58851940Y32695658D01*
X58852658Y32695178D01*
X58853543Y32693384D01*
X58852431Y32691721D01*
X58851157Y32691553D01*
X58828801Y32696000D01*
X56679199Y32696000D01*
X56656843Y32691553D01*
X56654949Y32692196D01*
X56654559Y32694158D01*
X56655342Y32695178D01*
X56655927Y32695569D01*
X56700535Y32748945D01*
X56709167Y32817660D01*
X56679203Y32880290D01*
X56656060Y32900342D01*
X56655342Y32900822D01*
X56654457Y32902616D01*
X56655569Y32904279D01*
X56656843Y32904447D01*
X56679199Y32900000D01*
X58828801Y32900000D01*
X58851157Y32904447D01*
X58853051Y32903804D01*
G37*
G36*
X70853051Y32903804D02*
G01*
X70853441Y32901842D01*
X70852658Y32900822D01*
X70852073Y32900431D01*
X70807465Y32847055D01*
X70798833Y32778340D01*
X70828797Y32715710D01*
X70851940Y32695658D01*
X70852658Y32695178D01*
X70853543Y32693384D01*
X70852431Y32691721D01*
X70851157Y32691553D01*
X70828801Y32696000D01*
X68679199Y32696000D01*
X68656843Y32691553D01*
X68654949Y32692196D01*
X68654559Y32694158D01*
X68655342Y32695178D01*
X68655927Y32695569D01*
X68700535Y32748945D01*
X68709167Y32817660D01*
X68679203Y32880290D01*
X68656060Y32900342D01*
X68655342Y32900822D01*
X68654457Y32902616D01*
X68655569Y32904279D01*
X68656843Y32904447D01*
X68679199Y32900000D01*
X70828801Y32900000D01*
X70851157Y32904447D01*
X70853051Y32903804D01*
G37*
G36*
X70853051Y33403804D02*
G01*
X70853441Y33401842D01*
X70852658Y33400822D01*
X70852073Y33400431D01*
X70807465Y33347055D01*
X70798833Y33278340D01*
X70828797Y33215710D01*
X70851940Y33195658D01*
X70852658Y33195178D01*
X70853543Y33193384D01*
X70852431Y33191721D01*
X70851157Y33191553D01*
X70828801Y33196000D01*
X68679199Y33196000D01*
X68656843Y33191553D01*
X68654949Y33192196D01*
X68654559Y33194158D01*
X68655342Y33195178D01*
X68655927Y33195569D01*
X68700535Y33248945D01*
X68709167Y33317660D01*
X68679203Y33380290D01*
X68656060Y33400342D01*
X68655342Y33400822D01*
X68654457Y33402616D01*
X68655569Y33404279D01*
X68656843Y33404447D01*
X68679199Y33400000D01*
X70828801Y33400000D01*
X70851157Y33404447D01*
X70853051Y33403804D01*
G37*
G36*
X58853051Y33403804D02*
G01*
X58853441Y33401842D01*
X58852658Y33400822D01*
X58852073Y33400431D01*
X58807465Y33347055D01*
X58798833Y33278340D01*
X58828797Y33215710D01*
X58851940Y33195658D01*
X58852658Y33195178D01*
X58853543Y33193384D01*
X58852431Y33191721D01*
X58851157Y33191553D01*
X58828801Y33196000D01*
X56679199Y33196000D01*
X56656843Y33191553D01*
X56654949Y33192196D01*
X56654559Y33194158D01*
X56655342Y33195178D01*
X56655927Y33195569D01*
X56700535Y33248945D01*
X56709167Y33317660D01*
X56679203Y33380290D01*
X56656060Y33400342D01*
X56655342Y33400822D01*
X56654457Y33402616D01*
X56655569Y33404279D01*
X56656843Y33404447D01*
X56679199Y33400000D01*
X58828801Y33400000D01*
X58851157Y33404447D01*
X58853051Y33403804D01*
G37*
G36*
X58853051Y33903804D02*
G01*
X58853441Y33901842D01*
X58852658Y33900822D01*
X58852073Y33900431D01*
X58807465Y33847055D01*
X58798833Y33778340D01*
X58828797Y33715710D01*
X58851940Y33695658D01*
X58852658Y33695178D01*
X58853543Y33693384D01*
X58852431Y33691721D01*
X58851157Y33691553D01*
X58828801Y33696000D01*
X56679199Y33696000D01*
X56656843Y33691553D01*
X56654949Y33692196D01*
X56654559Y33694158D01*
X56655342Y33695178D01*
X56655927Y33695569D01*
X56700535Y33748945D01*
X56709167Y33817660D01*
X56679203Y33880290D01*
X56656060Y33900342D01*
X56655342Y33900822D01*
X56654457Y33902616D01*
X56655569Y33904279D01*
X56656843Y33904447D01*
X56679199Y33900000D01*
X58828801Y33900000D01*
X58851157Y33904447D01*
X58853051Y33903804D01*
G37*
G36*
X70853051Y33903804D02*
G01*
X70853441Y33901842D01*
X70852658Y33900822D01*
X70852073Y33900431D01*
X70807465Y33847055D01*
X70798833Y33778340D01*
X70828797Y33715710D01*
X70851940Y33695658D01*
X70852658Y33695178D01*
X70853543Y33693384D01*
X70852431Y33691721D01*
X70851157Y33691553D01*
X70828801Y33696000D01*
X68679199Y33696000D01*
X68656843Y33691553D01*
X68654949Y33692196D01*
X68654559Y33694158D01*
X68655342Y33695178D01*
X68655927Y33695569D01*
X68700535Y33748945D01*
X68709167Y33817660D01*
X68679203Y33880290D01*
X68656060Y33900342D01*
X68655342Y33900822D01*
X68654457Y33902616D01*
X68655569Y33904279D01*
X68656843Y33904447D01*
X68679199Y33900000D01*
X70828801Y33900000D01*
X70851157Y33904447D01*
X70853051Y33903804D01*
G37*
G36*
X70853051Y34403804D02*
G01*
X70853441Y34401842D01*
X70852658Y34400822D01*
X70852073Y34400431D01*
X70807465Y34347055D01*
X70798833Y34278340D01*
X70828797Y34215710D01*
X70851940Y34195658D01*
X70852658Y34195178D01*
X70853543Y34193384D01*
X70852431Y34191721D01*
X70851157Y34191553D01*
X70828801Y34196000D01*
X68679199Y34196000D01*
X68656843Y34191553D01*
X68654949Y34192196D01*
X68654559Y34194158D01*
X68655342Y34195178D01*
X68655927Y34195569D01*
X68700535Y34248945D01*
X68709167Y34317660D01*
X68679203Y34380290D01*
X68656060Y34400342D01*
X68655342Y34400822D01*
X68654457Y34402616D01*
X68655569Y34404279D01*
X68656843Y34404447D01*
X68679199Y34400000D01*
X70828801Y34400000D01*
X70851157Y34404447D01*
X70853051Y34403804D01*
G37*
G36*
X58853051Y34403804D02*
G01*
X58853441Y34401842D01*
X58852658Y34400822D01*
X58852073Y34400431D01*
X58807465Y34347055D01*
X58798833Y34278340D01*
X58828797Y34215710D01*
X58851940Y34195658D01*
X58852658Y34195178D01*
X58853543Y34193384D01*
X58852431Y34191721D01*
X58851157Y34191553D01*
X58828801Y34196000D01*
X56679199Y34196000D01*
X56656843Y34191553D01*
X56654949Y34192196D01*
X56654559Y34194158D01*
X56655342Y34195178D01*
X56655927Y34195569D01*
X56700535Y34248945D01*
X56709167Y34317660D01*
X56679203Y34380290D01*
X56656060Y34400342D01*
X56655342Y34400822D01*
X56654457Y34402616D01*
X56655569Y34404279D01*
X56656843Y34404447D01*
X56679199Y34400000D01*
X58828801Y34400000D01*
X58851157Y34404447D01*
X58853051Y34403804D01*
G37*
G36*
X70853051Y34903804D02*
G01*
X70853441Y34901842D01*
X70852658Y34900822D01*
X70852073Y34900431D01*
X70807465Y34847055D01*
X70798833Y34778340D01*
X70828797Y34715710D01*
X70851940Y34695658D01*
X70852658Y34695178D01*
X70853543Y34693384D01*
X70852431Y34691721D01*
X70851157Y34691553D01*
X70828801Y34696000D01*
X68679199Y34696000D01*
X68656843Y34691553D01*
X68654949Y34692196D01*
X68654559Y34694158D01*
X68655342Y34695178D01*
X68655927Y34695569D01*
X68700535Y34748945D01*
X68709167Y34817660D01*
X68679203Y34880290D01*
X68656060Y34900342D01*
X68655342Y34900822D01*
X68654457Y34902616D01*
X68655569Y34904279D01*
X68656843Y34904447D01*
X68679199Y34900000D01*
X70828801Y34900000D01*
X70851157Y34904447D01*
X70853051Y34903804D01*
G37*
G36*
X58853051Y34903804D02*
G01*
X58853441Y34901842D01*
X58852658Y34900822D01*
X58852073Y34900431D01*
X58807465Y34847055D01*
X58798833Y34778340D01*
X58828797Y34715710D01*
X58851940Y34695658D01*
X58852658Y34695178D01*
X58853543Y34693384D01*
X58852431Y34691721D01*
X58851157Y34691553D01*
X58828801Y34696000D01*
X56679199Y34696000D01*
X56656843Y34691553D01*
X56654949Y34692196D01*
X56654559Y34694158D01*
X56655342Y34695178D01*
X56655927Y34695569D01*
X56700535Y34748945D01*
X56709167Y34817660D01*
X56679203Y34880290D01*
X56656060Y34900342D01*
X56655342Y34900822D01*
X56654457Y34902616D01*
X56655569Y34904279D01*
X56656843Y34904447D01*
X56679199Y34900000D01*
X58828801Y34900000D01*
X58851157Y34904447D01*
X58853051Y34903804D01*
G37*
G36*
X58853051Y35403804D02*
G01*
X58853441Y35401842D01*
X58852658Y35400822D01*
X58852073Y35400431D01*
X58807465Y35347055D01*
X58798833Y35278340D01*
X58828797Y35215710D01*
X58851940Y35195658D01*
X58852658Y35195178D01*
X58853543Y35193384D01*
X58852431Y35191721D01*
X58851157Y35191553D01*
X58828801Y35196000D01*
X56679199Y35196000D01*
X56656843Y35191553D01*
X56654949Y35192196D01*
X56654559Y35194158D01*
X56655342Y35195178D01*
X56655927Y35195569D01*
X56700535Y35248945D01*
X56709167Y35317660D01*
X56679203Y35380290D01*
X56656060Y35400342D01*
X56655342Y35400822D01*
X56654457Y35402616D01*
X56655569Y35404279D01*
X56656843Y35404447D01*
X56679199Y35400000D01*
X58828801Y35400000D01*
X58851157Y35404447D01*
X58853051Y35403804D01*
G37*
G36*
X70853051Y35403804D02*
G01*
X70853441Y35401842D01*
X70852658Y35400822D01*
X70852073Y35400431D01*
X70807465Y35347055D01*
X70798833Y35278340D01*
X70828797Y35215710D01*
X70851940Y35195658D01*
X70852658Y35195178D01*
X70853543Y35193384D01*
X70852431Y35191721D01*
X70851157Y35191553D01*
X70828801Y35196000D01*
X68679199Y35196000D01*
X68656843Y35191553D01*
X68654949Y35192196D01*
X68654559Y35194158D01*
X68655342Y35195178D01*
X68655927Y35195569D01*
X68700535Y35248945D01*
X68709167Y35317660D01*
X68679203Y35380290D01*
X68656060Y35400342D01*
X68655342Y35400822D01*
X68654457Y35402616D01*
X68655569Y35404279D01*
X68656843Y35404447D01*
X68679199Y35400000D01*
X70828801Y35400000D01*
X70851157Y35404447D01*
X70853051Y35403804D01*
G37*
G36*
X58853051Y35903804D02*
G01*
X58853441Y35901842D01*
X58852658Y35900822D01*
X58852073Y35900431D01*
X58807465Y35847055D01*
X58798833Y35778340D01*
X58828797Y35715710D01*
X58851940Y35695658D01*
X58852658Y35695178D01*
X58853543Y35693384D01*
X58852431Y35691721D01*
X58851157Y35691553D01*
X58828801Y35696000D01*
X56679199Y35696000D01*
X56656843Y35691553D01*
X56654949Y35692196D01*
X56654559Y35694158D01*
X56655342Y35695178D01*
X56655927Y35695569D01*
X56700535Y35748945D01*
X56709167Y35817660D01*
X56679203Y35880290D01*
X56656060Y35900342D01*
X56655342Y35900822D01*
X56654457Y35902616D01*
X56655569Y35904279D01*
X56656843Y35904447D01*
X56679199Y35900000D01*
X58828801Y35900000D01*
X58851157Y35904447D01*
X58853051Y35903804D01*
G37*
G36*
X70853051Y35903804D02*
G01*
X70853441Y35901842D01*
X70852658Y35900822D01*
X70852073Y35900431D01*
X70807465Y35847055D01*
X70798833Y35778340D01*
X70828797Y35715710D01*
X70851940Y35695658D01*
X70852658Y35695178D01*
X70853543Y35693384D01*
X70852431Y35691721D01*
X70851157Y35691553D01*
X70828801Y35696000D01*
X68679199Y35696000D01*
X68656843Y35691553D01*
X68654949Y35692196D01*
X68654559Y35694158D01*
X68655342Y35695178D01*
X68655927Y35695569D01*
X68700535Y35748945D01*
X68709167Y35817660D01*
X68679203Y35880290D01*
X68656060Y35900342D01*
X68655342Y35900822D01*
X68654457Y35902616D01*
X68655569Y35904279D01*
X68656843Y35904447D01*
X68679199Y35900000D01*
X70828801Y35900000D01*
X70851157Y35904447D01*
X70853051Y35903804D01*
G37*
G36*
X58853051Y36403804D02*
G01*
X58853441Y36401842D01*
X58852658Y36400822D01*
X58852073Y36400431D01*
X58807465Y36347055D01*
X58798833Y36278340D01*
X58828797Y36215710D01*
X58851940Y36195658D01*
X58852658Y36195178D01*
X58853543Y36193384D01*
X58852431Y36191721D01*
X58851157Y36191553D01*
X58828801Y36196000D01*
X56679199Y36196000D01*
X56656843Y36191553D01*
X56654949Y36192196D01*
X56654559Y36194158D01*
X56655342Y36195178D01*
X56655927Y36195569D01*
X56700535Y36248945D01*
X56709167Y36317660D01*
X56679203Y36380290D01*
X56656060Y36400342D01*
X56655342Y36400822D01*
X56654457Y36402616D01*
X56655569Y36404279D01*
X56656843Y36404447D01*
X56679199Y36400000D01*
X58828801Y36400000D01*
X58851157Y36404447D01*
X58853051Y36403804D01*
G37*
G36*
X70853051Y36403804D02*
G01*
X70853441Y36401842D01*
X70852658Y36400822D01*
X70852073Y36400431D01*
X70807465Y36347055D01*
X70798833Y36278340D01*
X70828797Y36215710D01*
X70851940Y36195658D01*
X70852658Y36195178D01*
X70853543Y36193384D01*
X70852431Y36191721D01*
X70851157Y36191553D01*
X70828801Y36196000D01*
X68679199Y36196000D01*
X68656843Y36191553D01*
X68654949Y36192196D01*
X68654559Y36194158D01*
X68655342Y36195178D01*
X68655927Y36195569D01*
X68700535Y36248945D01*
X68709167Y36317660D01*
X68679203Y36380290D01*
X68656060Y36400342D01*
X68655342Y36400822D01*
X68654457Y36402616D01*
X68655569Y36404279D01*
X68656843Y36404447D01*
X68679199Y36400000D01*
X70828801Y36400000D01*
X70851157Y36404447D01*
X70853051Y36403804D01*
G37*
G36*
X58853051Y36903804D02*
G01*
X58853441Y36901842D01*
X58852658Y36900822D01*
X58852073Y36900431D01*
X58807465Y36847055D01*
X58798833Y36778340D01*
X58828797Y36715710D01*
X58851940Y36695658D01*
X58852658Y36695178D01*
X58853543Y36693384D01*
X58852431Y36691721D01*
X58851157Y36691553D01*
X58828801Y36696000D01*
X56679199Y36696000D01*
X56656843Y36691553D01*
X56654949Y36692196D01*
X56654559Y36694158D01*
X56655342Y36695178D01*
X56655927Y36695569D01*
X56700535Y36748945D01*
X56709167Y36817660D01*
X56679203Y36880290D01*
X56656060Y36900342D01*
X56655342Y36900822D01*
X56654457Y36902616D01*
X56655569Y36904279D01*
X56656843Y36904447D01*
X56679199Y36900000D01*
X58828801Y36900000D01*
X58851157Y36904447D01*
X58853051Y36903804D01*
G37*
G36*
X70853051Y36903804D02*
G01*
X70853441Y36901842D01*
X70852658Y36900822D01*
X70852073Y36900431D01*
X70807465Y36847055D01*
X70798833Y36778340D01*
X70828797Y36715710D01*
X70851940Y36695658D01*
X70852658Y36695178D01*
X70853543Y36693384D01*
X70852431Y36691721D01*
X70851157Y36691553D01*
X70828801Y36696000D01*
X68679199Y36696000D01*
X68656843Y36691553D01*
X68654949Y36692196D01*
X68654559Y36694158D01*
X68655342Y36695178D01*
X68655927Y36695569D01*
X68700535Y36748945D01*
X68709167Y36817660D01*
X68679203Y36880290D01*
X68656060Y36900342D01*
X68655342Y36900822D01*
X68654457Y36902616D01*
X68655569Y36904279D01*
X68656843Y36904447D01*
X68679199Y36900000D01*
X70828801Y36900000D01*
X70851157Y36904447D01*
X70853051Y36903804D01*
G37*
G36*
X58853051Y37403804D02*
G01*
X58853441Y37401842D01*
X58852658Y37400822D01*
X58852073Y37400431D01*
X58807465Y37347055D01*
X58798833Y37278340D01*
X58828797Y37215710D01*
X58851940Y37195658D01*
X58852658Y37195178D01*
X58853543Y37193384D01*
X58852431Y37191721D01*
X58851157Y37191553D01*
X58828801Y37196000D01*
X56679199Y37196000D01*
X56656843Y37191553D01*
X56654949Y37192196D01*
X56654559Y37194158D01*
X56655342Y37195178D01*
X56655927Y37195569D01*
X56700535Y37248945D01*
X56709167Y37317660D01*
X56679203Y37380290D01*
X56656060Y37400342D01*
X56655342Y37400822D01*
X56654457Y37402616D01*
X56655569Y37404279D01*
X56656843Y37404447D01*
X56679199Y37400000D01*
X58828801Y37400000D01*
X58851157Y37404447D01*
X58853051Y37403804D01*
G37*
G36*
X70853051Y37403804D02*
G01*
X70853441Y37401842D01*
X70852658Y37400822D01*
X70852073Y37400431D01*
X70807465Y37347055D01*
X70798833Y37278340D01*
X70828797Y37215710D01*
X70851940Y37195658D01*
X70852658Y37195178D01*
X70853543Y37193384D01*
X70852431Y37191721D01*
X70851157Y37191553D01*
X70828801Y37196000D01*
X68679199Y37196000D01*
X68656843Y37191553D01*
X68654949Y37192196D01*
X68654559Y37194158D01*
X68655342Y37195178D01*
X68655927Y37195569D01*
X68700535Y37248945D01*
X68709167Y37317660D01*
X68679203Y37380290D01*
X68656060Y37400342D01*
X68655342Y37400822D01*
X68654457Y37402616D01*
X68655569Y37404279D01*
X68656843Y37404447D01*
X68679199Y37400000D01*
X70828801Y37400000D01*
X70851157Y37404447D01*
X70853051Y37403804D01*
G37*
G36*
X58853051Y37903804D02*
G01*
X58853441Y37901842D01*
X58852658Y37900822D01*
X58852073Y37900431D01*
X58807465Y37847055D01*
X58798833Y37778340D01*
X58828797Y37715710D01*
X58851940Y37695658D01*
X58852658Y37695178D01*
X58853543Y37693384D01*
X58852431Y37691721D01*
X58851157Y37691553D01*
X58828801Y37696000D01*
X56679199Y37696000D01*
X56656843Y37691553D01*
X56654949Y37692196D01*
X56654559Y37694158D01*
X56655342Y37695178D01*
X56655927Y37695569D01*
X56700535Y37748945D01*
X56709167Y37817660D01*
X56679203Y37880290D01*
X56656060Y37900342D01*
X56655342Y37900822D01*
X56654457Y37902616D01*
X56655569Y37904279D01*
X56656843Y37904447D01*
X56679199Y37900000D01*
X58828801Y37900000D01*
X58851157Y37904447D01*
X58853051Y37903804D01*
G37*
G36*
X70853051Y37903804D02*
G01*
X70853441Y37901842D01*
X70852658Y37900822D01*
X70852073Y37900431D01*
X70807465Y37847055D01*
X70798833Y37778340D01*
X70828797Y37715710D01*
X70851940Y37695658D01*
X70852658Y37695178D01*
X70853543Y37693384D01*
X70852431Y37691721D01*
X70851157Y37691553D01*
X70828801Y37696000D01*
X68679199Y37696000D01*
X68656843Y37691553D01*
X68654949Y37692196D01*
X68654559Y37694158D01*
X68655342Y37695178D01*
X68655927Y37695569D01*
X68700535Y37748945D01*
X68709167Y37817660D01*
X68679203Y37880290D01*
X68656060Y37900342D01*
X68655342Y37900822D01*
X68654457Y37902616D01*
X68655569Y37904279D01*
X68656843Y37904447D01*
X68679199Y37900000D01*
X70828801Y37900000D01*
X70851157Y37904447D01*
X70853051Y37903804D01*
G37*
G36*
X70853051Y38403804D02*
G01*
X70853441Y38401842D01*
X70852658Y38400822D01*
X70852073Y38400431D01*
X70807465Y38347055D01*
X70798833Y38278340D01*
X70828797Y38215710D01*
X70851940Y38195658D01*
X70852658Y38195178D01*
X70853543Y38193384D01*
X70852431Y38191721D01*
X70851157Y38191553D01*
X70828801Y38196000D01*
X68679199Y38196000D01*
X68656843Y38191553D01*
X68654949Y38192196D01*
X68654559Y38194158D01*
X68655342Y38195178D01*
X68655927Y38195569D01*
X68700535Y38248945D01*
X68709167Y38317660D01*
X68679203Y38380290D01*
X68656060Y38400342D01*
X68655342Y38400822D01*
X68654457Y38402616D01*
X68655569Y38404279D01*
X68656843Y38404447D01*
X68679199Y38400000D01*
X70828801Y38400000D01*
X70851157Y38404447D01*
X70853051Y38403804D01*
G37*
G36*
X58853051Y38403804D02*
G01*
X58853441Y38401842D01*
X58852658Y38400822D01*
X58852073Y38400431D01*
X58807465Y38347055D01*
X58798833Y38278340D01*
X58828797Y38215710D01*
X58851940Y38195658D01*
X58852658Y38195178D01*
X58853543Y38193384D01*
X58852431Y38191721D01*
X58851157Y38191553D01*
X58828801Y38196000D01*
X56679199Y38196000D01*
X56656843Y38191553D01*
X56654949Y38192196D01*
X56654559Y38194158D01*
X56655342Y38195178D01*
X56655927Y38195569D01*
X56700535Y38248945D01*
X56709167Y38317660D01*
X56679203Y38380290D01*
X56656060Y38400342D01*
X56655342Y38400822D01*
X56654457Y38402616D01*
X56655569Y38404279D01*
X56656843Y38404447D01*
X56679199Y38400000D01*
X58828801Y38400000D01*
X58851157Y38404447D01*
X58853051Y38403804D01*
G37*
G36*
X64860279Y41896431D02*
G01*
X64860447Y41895157D01*
X64856000Y41872801D01*
X64856000Y39723199D01*
X64860447Y39700843D01*
X64859804Y39698949D01*
X64857842Y39698559D01*
X64856822Y39699342D01*
X64856431Y39699927D01*
X64803055Y39744535D01*
X64734340Y39753167D01*
X64671710Y39723203D01*
X64651658Y39700060D01*
X64651178Y39699342D01*
X64649384Y39698457D01*
X64647721Y39699569D01*
X64647553Y39700843D01*
X64652000Y39723199D01*
X64652000Y41872801D01*
X64647553Y41895157D01*
X64648196Y41897051D01*
X64650158Y41897441D01*
X64651178Y41896658D01*
X64651569Y41896073D01*
X64704945Y41851465D01*
X64773660Y41842833D01*
X64836290Y41872797D01*
X64856342Y41895940D01*
X64856822Y41896658D01*
X64858616Y41897543D01*
X64860279Y41896431D01*
G37*
G36*
X67360279Y41896431D02*
G01*
X67360447Y41895157D01*
X67356000Y41872801D01*
X67356000Y39723199D01*
X67360447Y39700843D01*
X67359804Y39698949D01*
X67357842Y39698559D01*
X67356822Y39699342D01*
X67356431Y39699927D01*
X67303055Y39744535D01*
X67234340Y39753167D01*
X67171710Y39723203D01*
X67151658Y39700060D01*
X67151178Y39699342D01*
X67149384Y39698457D01*
X67147721Y39699569D01*
X67147553Y39700843D01*
X67152000Y39723199D01*
X67152000Y41872801D01*
X67147553Y41895157D01*
X67148196Y41897051D01*
X67150158Y41897441D01*
X67151178Y41896658D01*
X67151569Y41896073D01*
X67204945Y41851465D01*
X67273660Y41842833D01*
X67336290Y41872797D01*
X67356342Y41895940D01*
X67356822Y41896658D01*
X67358616Y41897543D01*
X67360279Y41896431D01*
G37*
G36*
X60360279Y41896431D02*
G01*
X60360447Y41895157D01*
X60356000Y41872801D01*
X60356000Y39723199D01*
X60360447Y39700843D01*
X60359804Y39698949D01*
X60357842Y39698559D01*
X60356822Y39699342D01*
X60356431Y39699927D01*
X60303055Y39744535D01*
X60234340Y39753167D01*
X60171710Y39723203D01*
X60151658Y39700060D01*
X60151178Y39699342D01*
X60149384Y39698457D01*
X60147721Y39699569D01*
X60147553Y39700843D01*
X60152000Y39723199D01*
X60152000Y41872801D01*
X60147553Y41895157D01*
X60148196Y41897051D01*
X60150158Y41897441D01*
X60151178Y41896658D01*
X60151569Y41896073D01*
X60204945Y41851465D01*
X60273660Y41842833D01*
X60336290Y41872797D01*
X60356342Y41895940D01*
X60356822Y41896658D01*
X60358616Y41897543D01*
X60360279Y41896431D01*
G37*
G36*
X62860279Y41896431D02*
G01*
X62860447Y41895157D01*
X62856000Y41872801D01*
X62856000Y39723199D01*
X62860447Y39700843D01*
X62859804Y39698949D01*
X62857842Y39698559D01*
X62856822Y39699342D01*
X62856431Y39699927D01*
X62803055Y39744535D01*
X62734340Y39753167D01*
X62671710Y39723203D01*
X62651658Y39700060D01*
X62651178Y39699342D01*
X62649384Y39698457D01*
X62647721Y39699569D01*
X62647553Y39700843D01*
X62652000Y39723199D01*
X62652000Y41872801D01*
X62647553Y41895157D01*
X62648196Y41897051D01*
X62650158Y41897441D01*
X62651178Y41896658D01*
X62651569Y41896073D01*
X62704945Y41851465D01*
X62773660Y41842833D01*
X62836290Y41872797D01*
X62856342Y41895940D01*
X62856822Y41896658D01*
X62858616Y41897543D01*
X62860279Y41896431D01*
G37*
G36*
X66360279Y41896431D02*
G01*
X66360447Y41895157D01*
X66356000Y41872801D01*
X66356000Y39723199D01*
X66360447Y39700843D01*
X66359804Y39698949D01*
X66357842Y39698559D01*
X66356822Y39699342D01*
X66356431Y39699927D01*
X66303055Y39744535D01*
X66234340Y39753167D01*
X66171710Y39723203D01*
X66151658Y39700060D01*
X66151178Y39699342D01*
X66149384Y39698457D01*
X66147721Y39699569D01*
X66147553Y39700843D01*
X66152000Y39723199D01*
X66152000Y41872801D01*
X66147553Y41895157D01*
X66148196Y41897051D01*
X66150158Y41897441D01*
X66151178Y41896658D01*
X66151569Y41896073D01*
X66204945Y41851465D01*
X66273660Y41842833D01*
X66336290Y41872797D01*
X66356342Y41895940D01*
X66356822Y41896658D01*
X66358616Y41897543D01*
X66360279Y41896431D01*
G37*
G36*
X65860279Y41896431D02*
G01*
X65860447Y41895157D01*
X65856000Y41872801D01*
X65856000Y39723199D01*
X65860447Y39700843D01*
X65859804Y39698949D01*
X65857842Y39698559D01*
X65856822Y39699342D01*
X65856431Y39699927D01*
X65803055Y39744535D01*
X65734340Y39753167D01*
X65671710Y39723203D01*
X65651658Y39700060D01*
X65651178Y39699342D01*
X65649384Y39698457D01*
X65647721Y39699569D01*
X65647553Y39700843D01*
X65652000Y39723199D01*
X65652000Y41872801D01*
X65647553Y41895157D01*
X65648196Y41897051D01*
X65650158Y41897441D01*
X65651178Y41896658D01*
X65651569Y41896073D01*
X65704945Y41851465D01*
X65773660Y41842833D01*
X65836290Y41872797D01*
X65856342Y41895940D01*
X65856822Y41896658D01*
X65858616Y41897543D01*
X65860279Y41896431D01*
G37*
G36*
X65360279Y41896431D02*
G01*
X65360447Y41895157D01*
X65356000Y41872801D01*
X65356000Y39723199D01*
X65360447Y39700843D01*
X65359804Y39698949D01*
X65357842Y39698559D01*
X65356822Y39699342D01*
X65356431Y39699927D01*
X65303055Y39744535D01*
X65234340Y39753167D01*
X65171710Y39723203D01*
X65151658Y39700060D01*
X65151178Y39699342D01*
X65149384Y39698457D01*
X65147721Y39699569D01*
X65147553Y39700843D01*
X65152000Y39723199D01*
X65152000Y41872801D01*
X65147553Y41895157D01*
X65148196Y41897051D01*
X65150158Y41897441D01*
X65151178Y41896658D01*
X65151569Y41896073D01*
X65204945Y41851465D01*
X65273660Y41842833D01*
X65336290Y41872797D01*
X65356342Y41895940D01*
X65356822Y41896658D01*
X65358616Y41897543D01*
X65360279Y41896431D01*
G37*
G36*
X60860279Y41896431D02*
G01*
X60860447Y41895157D01*
X60856000Y41872801D01*
X60856000Y39723199D01*
X60860447Y39700843D01*
X60859804Y39698949D01*
X60857842Y39698559D01*
X60856822Y39699342D01*
X60856431Y39699927D01*
X60803055Y39744535D01*
X60734340Y39753167D01*
X60671710Y39723203D01*
X60651658Y39700060D01*
X60651178Y39699342D01*
X60649384Y39698457D01*
X60647721Y39699569D01*
X60647553Y39700843D01*
X60652000Y39723199D01*
X60652000Y41872801D01*
X60647553Y41895157D01*
X60648196Y41897051D01*
X60650158Y41897441D01*
X60651178Y41896658D01*
X60651569Y41896073D01*
X60704945Y41851465D01*
X60773660Y41842833D01*
X60836290Y41872797D01*
X60856342Y41895940D01*
X60856822Y41896658D01*
X60858616Y41897543D01*
X60860279Y41896431D01*
G37*
G36*
X64360279Y41896431D02*
G01*
X64360447Y41895157D01*
X64356000Y41872801D01*
X64356000Y39723199D01*
X64360447Y39700843D01*
X64359804Y39698949D01*
X64357842Y39698559D01*
X64356822Y39699342D01*
X64356431Y39699927D01*
X64303055Y39744535D01*
X64234340Y39753167D01*
X64171710Y39723203D01*
X64151658Y39700060D01*
X64151178Y39699342D01*
X64149384Y39698457D01*
X64147721Y39699569D01*
X64147553Y39700843D01*
X64152000Y39723199D01*
X64152000Y41872801D01*
X64147553Y41895157D01*
X64148196Y41897051D01*
X64150158Y41897441D01*
X64151178Y41896658D01*
X64151569Y41896073D01*
X64204945Y41851465D01*
X64273660Y41842833D01*
X64336290Y41872797D01*
X64356342Y41895940D01*
X64356822Y41896658D01*
X64358616Y41897543D01*
X64360279Y41896431D01*
G37*
G36*
X63360279Y41896431D02*
G01*
X63360447Y41895157D01*
X63356000Y41872801D01*
X63356000Y39723199D01*
X63360447Y39700843D01*
X63359804Y39698949D01*
X63357842Y39698559D01*
X63356822Y39699342D01*
X63356431Y39699927D01*
X63303055Y39744535D01*
X63234340Y39753167D01*
X63171710Y39723203D01*
X63151658Y39700060D01*
X63151178Y39699342D01*
X63149384Y39698457D01*
X63147721Y39699569D01*
X63147553Y39700843D01*
X63152000Y39723199D01*
X63152000Y41872801D01*
X63147553Y41895157D01*
X63148196Y41897051D01*
X63150158Y41897441D01*
X63151178Y41896658D01*
X63151569Y41896073D01*
X63204945Y41851465D01*
X63273660Y41842833D01*
X63336290Y41872797D01*
X63356342Y41895940D01*
X63356822Y41896658D01*
X63358616Y41897543D01*
X63360279Y41896431D01*
G37*
G36*
X61360279Y41896431D02*
G01*
X61360447Y41895157D01*
X61356000Y41872801D01*
X61356000Y39723199D01*
X61360447Y39700843D01*
X61359804Y39698949D01*
X61357842Y39698559D01*
X61356822Y39699342D01*
X61356431Y39699927D01*
X61303055Y39744535D01*
X61234340Y39753167D01*
X61171710Y39723203D01*
X61151658Y39700060D01*
X61151178Y39699342D01*
X61149384Y39698457D01*
X61147721Y39699569D01*
X61147553Y39700843D01*
X61152000Y39723199D01*
X61152000Y41872801D01*
X61147553Y41895157D01*
X61148196Y41897051D01*
X61150158Y41897441D01*
X61151178Y41896658D01*
X61151569Y41896073D01*
X61204945Y41851465D01*
X61273660Y41842833D01*
X61336290Y41872797D01*
X61356342Y41895940D01*
X61356822Y41896658D01*
X61358616Y41897543D01*
X61360279Y41896431D01*
G37*
G36*
X63860279Y41896431D02*
G01*
X63860447Y41895157D01*
X63856000Y41872801D01*
X63856000Y39723199D01*
X63860447Y39700843D01*
X63859804Y39698949D01*
X63857842Y39698559D01*
X63856822Y39699342D01*
X63856431Y39699927D01*
X63803055Y39744535D01*
X63734340Y39753167D01*
X63671710Y39723203D01*
X63651658Y39700060D01*
X63651178Y39699342D01*
X63649384Y39698457D01*
X63647721Y39699569D01*
X63647553Y39700843D01*
X63652000Y39723199D01*
X63652000Y41872801D01*
X63647553Y41895157D01*
X63648196Y41897051D01*
X63650158Y41897441D01*
X63651178Y41896658D01*
X63651569Y41896073D01*
X63704945Y41851465D01*
X63773660Y41842833D01*
X63836290Y41872797D01*
X63856342Y41895940D01*
X63856822Y41896658D01*
X63858616Y41897543D01*
X63860279Y41896431D01*
G37*
G36*
X66860279Y41896431D02*
G01*
X66860447Y41895157D01*
X66856000Y41872801D01*
X66856000Y39723199D01*
X66860447Y39700843D01*
X66859804Y39698949D01*
X66857842Y39698559D01*
X66856822Y39699342D01*
X66856431Y39699927D01*
X66803055Y39744535D01*
X66734340Y39753167D01*
X66671710Y39723203D01*
X66651658Y39700060D01*
X66651178Y39699342D01*
X66649384Y39698457D01*
X66647721Y39699569D01*
X66647553Y39700843D01*
X66652000Y39723199D01*
X66652000Y41872801D01*
X66647553Y41895157D01*
X66648196Y41897051D01*
X66650158Y41897441D01*
X66651178Y41896658D01*
X66651569Y41896073D01*
X66704945Y41851465D01*
X66773660Y41842833D01*
X66836290Y41872797D01*
X66856342Y41895940D01*
X66856822Y41896658D01*
X66858616Y41897543D01*
X66860279Y41896431D01*
G37*
G36*
X62360279Y41896431D02*
G01*
X62360447Y41895157D01*
X62356000Y41872801D01*
X62356000Y39723199D01*
X62360447Y39700843D01*
X62359804Y39698949D01*
X62357842Y39698559D01*
X62356822Y39699342D01*
X62356431Y39699927D01*
X62303055Y39744535D01*
X62234340Y39753167D01*
X62171710Y39723203D01*
X62151658Y39700060D01*
X62151178Y39699342D01*
X62149384Y39698457D01*
X62147721Y39699569D01*
X62147553Y39700843D01*
X62152000Y39723199D01*
X62152000Y41872801D01*
X62147553Y41895157D01*
X62148196Y41897051D01*
X62150158Y41897441D01*
X62151178Y41896658D01*
X62151569Y41896073D01*
X62204945Y41851465D01*
X62273660Y41842833D01*
X62336290Y41872797D01*
X62356342Y41895940D01*
X62356822Y41896658D01*
X62358616Y41897543D01*
X62360279Y41896431D01*
G37*
G36*
X61860279Y41896431D02*
G01*
X61860447Y41895157D01*
X61856000Y41872801D01*
X61856000Y39723199D01*
X61860447Y39700843D01*
X61859804Y39698949D01*
X61857842Y39698559D01*
X61856822Y39699342D01*
X61856431Y39699927D01*
X61803055Y39744535D01*
X61734340Y39753167D01*
X61671710Y39723203D01*
X61651658Y39700060D01*
X61651178Y39699342D01*
X61649384Y39698457D01*
X61647721Y39699569D01*
X61647553Y39700843D01*
X61652000Y39723199D01*
X61652000Y41872801D01*
X61647553Y41895157D01*
X61648196Y41897051D01*
X61650158Y41897441D01*
X61651178Y41896658D01*
X61651569Y41896073D01*
X61704945Y41851465D01*
X61773660Y41842833D01*
X61836290Y41872797D01*
X61856342Y41895940D01*
X61856822Y41896658D01*
X61858616Y41897543D01*
X61860279Y41896431D01*
G37*
M02*
